<svg xmlns="http://www.w3.org/2000/svg" xmlns:xlink="http://www.w3.org/1999/xlink" width="300" zoomAndPan="magnify" viewBox="0 0 375 374.999991" height="300" preserveAspectRatio="xMidYMid meet" version="1.0"><defs><g/><clipPath id="3d889e25e0"><path d="M 120.136719 66.152344 L 255.136719 66.152344 L 255.136719 216.152344 L 120.136719 216.152344 Z M 120.136719 66.152344 " clip-rule="nonzero"/></clipPath></defs><g clip-path="url(#3d889e25e0)"><path fill="#f5f5f5" d="M 183.167969 86.363281 C 172.132812 86.800781 160.910156 87.292969 149.828125 87.8125 L 149.808594 87.8125 C 149.574219 87.8125 149.402344 87.644531 149.402344 87.410156 C 149.402344 87.191406 149.539062 86.972656 149.828125 86.953125 C 156.0625 86.667969 162.296875 86.378906 168.550781 86.109375 C 179.566406 85.636719 190.71875 85.183594 201.738281 84.777344 C 212.773438 84.375 223.992188 84.003906 235.09375 83.664062 C 235.347656 83.664062 235.515625 83.835938 235.515625 84.085938 C 235.515625 84.339844 235.347656 84.527344 235.09375 84.542969 C 228.859375 84.726562 222.605469 84.929688 216.371094 85.132812 C 205.40625 85.503906 194.234375 85.910156 183.167969 86.363281 Z M 232.054688 169.886719 C 230.988281 170.273438 229.890625 170.613281 228.742188 170.933594 C 228.910156 170.933594 229.078125 170.933594 229.25 170.933594 C 232.476562 170.933594 235.28125 171.21875 237.816406 171.808594 C 244.152344 173.277344 249.375 176.933594 251.789062 181.640625 C 253.363281 184.691406 253.71875 187.894531 252.753906 190.410156 C 251.789062 192.90625 249.507812 194.558594 245.945312 195.316406 C 244.542969 195.621094 243.105469 195.769531 241.71875 195.921875 L 241.09375 195.992188 C 239.066406 196.226562 237.019531 196.429688 234.976562 196.632812 C 231.105469 197.019531 227.035156 197.371094 222.84375 197.695312 C 218.347656 198.046875 213.480469 198.367188 208.007812 198.671875 C 208.226562 199.414062 208.414062 200.15625 208.546875 200.929688 L 208.582031 201.183594 C 208.683594 201.859375 208.816406 202.617188 208.71875 203.308594 C 208.617188 204.101562 208.328125 204.925781 207.871094 205.738281 C 207.363281 206.648438 206.621094 207.40625 205.742188 207.945312 C 205.253906 208.25 204.695312 208.46875 204.121094 208.621094 C 204.121094 208.636719 204.121094 208.671875 204.121094 208.6875 C 204.121094 208.804688 204.054688 208.890625 203.96875 208.957031 C 202.652344 209.953125 201.011719 210.492188 199.320312 210.492188 C 198.730469 210.492188 198.15625 210.425781 197.582031 210.289062 C 197.582031 210.289062 197.546875 210.289062 197.546875 210.273438 C 196.988281 210.40625 196.414062 210.476562 195.839844 210.476562 C 195.554688 210.476562 195.28125 210.457031 195.011719 210.425781 C 193.863281 210.289062 192.679688 209.902344 191.496094 209.296875 C 190.28125 208.671875 189.417969 207.929688 188.863281 207.050781 C 188.21875 206.023438 188.085938 204.84375 188.457031 203.730469 C 188.574219 203.359375 188.742188 203.023438 188.914062 202.667969 C 189.234375 201.992188 189.539062 201.371094 189.539062 200.628906 C 189.539062 200.273438 189.46875 199.917969 189.402344 199.566406 C 188.335938 199.617188 187.289062 199.667969 186.226562 199.699219 C 186.226562 199.886719 186.207031 200.070312 186.191406 200.257812 C 186.039062 201.65625 185.53125 202.632812 184.652344 203.175781 C 184.28125 203.410156 183.84375 203.546875 183.351562 203.59375 C 183.976562 205.0625 183.960938 206.765625 183.285156 208.214844 C 182.542969 209.851562 181.003906 211.015625 179.160156 211.351562 C 178.824219 211.421875 178.46875 211.4375 178.132812 211.4375 C 177.488281 211.4375 176.878906 211.335938 176.289062 211.132812 C 176.070312 211.722656 175.699219 212.28125 175.222656 212.71875 C 174.09375 213.765625 172.503906 214.203125 170.984375 214.523438 C 169.785156 214.777344 168.601562 214.910156 167.484375 214.910156 C 165.441406 214.910156 163.597656 214.488281 161.976562 213.679688 C 160.523438 212.9375 159.304688 211.875 158.460938 210.628906 C 158.410156 210.542969 158.394531 210.441406 158.394531 210.359375 C 157.652344 210.070312 157.042969 209.683594 156.519531 209.226562 C 156.148438 209.261719 155.757812 209.277344 155.386719 209.277344 C 153.730469 209.277344 152.277344 208.90625 151.09375 208.148438 C 149.472656 207.136719 148.457031 205.5 148.355469 203.78125 C 148.304688 202.804688 148.523438 201.859375 148.777344 200.898438 C 149.082031 199.75 149.285156 198.789062 149.4375 197.878906 L 149.472656 197.675781 C 149.539062 197.238281 149.605469 196.800781 149.675781 196.34375 C 149.101562 196.410156 148.492188 196.445312 147.832031 196.460938 C 145.617188 199.429688 141.832031 200.359375 138.773438 201.101562 L 138.691406 201.101562 C 138.589844 201.101562 138.488281 201.066406 138.421875 200.980469 C 138.335938 200.898438 138.300781 200.796875 138.300781 200.679688 C 138.386719 198.824219 139.824219 197.472656 141.140625 196.832031 C 141.816406 196.496094 142.558594 196.261719 143.507812 196.074219 C 142.1875 195.820312 140.902344 195.433594 139.671875 194.910156 C 139.097656 195.078125 138.523438 195.265625 137.964844 195.449219 C 136.746094 195.855469 135.496094 196.277344 134.179688 196.410156 C 133.773438 196.445312 133.367188 196.480469 132.960938 196.480469 C 131.628906 196.480469 130.324219 196.261719 129.074219 195.820312 C 128.144531 195.5 127.265625 195.0625 126.4375 194.507812 C 126.355469 194.457031 126.289062 194.355469 126.269531 194.238281 C 126.253906 194.136719 126.269531 194.035156 126.339844 193.949219 C 127.300781 192.703125 128.90625 191.925781 130.730469 191.824219 C 130.882812 191.808594 131.050781 191.808594 131.203125 191.808594 C 132.777344 191.808594 134.28125 192.230469 135.800781 192.734375 C 135.3125 192.382812 134.835938 192.011719 134.398438 191.640625 C 133.417969 190.796875 132.523438 189.835938 131.710938 188.789062 L 131.527344 188.535156 C 130.359375 187.894531 129.042969 187.59375 127.742188 187.304688 C 127.183594 187.1875 126.625 187.054688 126.085938 186.902344 C 124.917969 186.582031 124.039062 186.191406 123.332031 185.671875 C 122.535156 185.164062 121.828125 184.289062 121.300781 183.175781 C 120.828125 182.214844 120.457031 181.082031 120.171875 179.835938 C 120.070312 179.414062 120.253906 179.210938 120.40625 179.109375 C 120.574219 179.007812 120.777344 178.992188 120.929688 178.992188 L 121.183594 178.992188 C 121.792969 178.992188 122.382812 179.027344 122.976562 179.109375 C 125.460938 179.429688 127.640625 180.375 129.296875 181.84375 C 131.222656 183.546875 132.371094 185.90625 132.457031 188.316406 C 132.488281 188.386719 132.488281 188.453125 132.488281 188.535156 C 133.453125 189.75 134.550781 190.863281 135.785156 191.808594 C 134.078125 189.195312 133.113281 186.089844 133.046875 182.957031 C 133.03125 181.84375 133.113281 180.695312 133.332031 179.597656 C 133.367188 179.398438 133.535156 179.261719 133.722656 179.261719 C 133.789062 179.261719 133.859375 179.277344 133.925781 179.3125 C 134.789062 179.820312 135.546875 180.425781 136.207031 181.132812 C 136.628906 180.410156 137.070312 179.683594 137.507812 178.992188 C 137.929688 178.316406 138.351562 177.660156 138.742188 176.984375 C 139.535156 175.601562 140.667969 173.5625 141.125 171.605469 C 142.207031 167.070312 143.253906 162.464844 144.265625 157.945312 C 145.28125 153.394531 146.261719 148.757812 147.207031 144.171875 C 148.152344 139.601562 149.066406 134.980469 149.929688 130.410156 C 150.808594 125.824219 151.652344 121.1875 152.445312 116.617188 C 153.308594 111.660156 154.136719 106.699219 154.792969 102.636719 C 154.710938 102.636719 154.609375 102.636719 154.507812 102.636719 C 153.121094 102.636719 151.347656 102.316406 150.199219 101.878906 C 147.445312 100.796875 145.164062 98.574219 143.945312 95.773438 C 142.730469 92.992188 142.660156 89.652344 143.761719 86.363281 C 145.667969 80.613281 150.585938 76.042969 158.359375 72.789062 C 164.765625 70.109375 172.03125 68.285156 180.566406 67.242188 C 186.242188 66.515625 192.207031 66.179688 198.816406 66.179688 C 200.453125 66.179688 202.144531 66.195312 203.867188 66.246094 C 210.675781 66.414062 218.585938 67.054688 225.648438 70.53125 C 231.597656 73.464844 236.226562 78.203125 238.324219 83.53125 C 239.523438 86.582031 239.859375 89.652344 239.285156 92.382812 C 238.609375 95.570312 236.632812 97.949219 233.84375 98.910156 C 233 99.195312 232.054688 99.398438 230.902344 99.515625 C 231.78125 102.722656 232.492188 106.328125 230.078125 108.808594 C 229.199219 109.703125 227.996094 110.175781 226.273438 110.308594 C 225.109375 110.394531 223.925781 110.425781 222.777344 110.460938 C 222.269531 110.476562 221.761719 110.496094 221.253906 110.511719 L 219.363281 110.578125 L 219.464844 116.515625 C 219.464844 116.53125 219.464844 116.566406 219.464844 116.582031 C 219.464844 116.582031 223.941406 116.464844 225.277344 116.429688 C 233.285156 116.226562 242.160156 116.027344 254.054688 115.789062 L 254.070312 115.789062 C 254.070312 115.789062 254.140625 115.804688 254.140625 115.804688 C 254.324219 115.804688 254.546875 115.941406 254.5625 116.210938 C 254.613281 116.953125 254.664062 117.929688 254.695312 118.890625 C 254.730469 119.667969 254.765625 120.410156 254.796875 121.015625 C 255.121094 126.277344 255.339844 131.910156 254.816406 137.527344 C 254.34375 142.6875 253.226562 147.375 251.554688 151.453125 C 249.679688 155.992188 247.125 159.800781 243.964844 162.769531 C 240.773438 165.804688 236.769531 168.183594 232.054688 169.886719 Z M 230.058594 99.703125 C 230.042969 99.667969 230.042969 99.636719 230.042969 99.601562 C 229.621094 99.636719 229.179688 99.652344 228.757812 99.667969 C 227.339844 99.734375 225.9375 99.785156 224.515625 99.835938 L 203.054688 100.714844 C 203.5625 102.011719 203.445312 103.394531 203.34375 104.710938 L 203.308594 105.25 C 203.207031 106.566406 203.242188 108.03125 204.105469 109.027344 C 204.933594 109.988281 206.316406 110.125 207.414062 110.140625 L 207.601562 110.140625 C 208.617188 110.140625 209.644531 110.089844 210.644531 110.039062 C 211.097656 110.023438 211.554688 109.988281 212.011719 109.972656 L 215.308594 109.835938 C 215.375 109.804688 215.441406 109.785156 215.511719 109.785156 C 215.5625 109.785156 215.628906 109.804688 215.679688 109.820312 L 221.796875 109.585938 C 222.253906 109.566406 222.726562 109.550781 223.183594 109.535156 C 224.246094 109.5 225.363281 109.464844 226.441406 109.382812 C 227.980469 109.246094 229.097656 108.707031 229.804688 107.730469 C 231.613281 105.367188 230.71875 102.097656 230.058594 99.703125 Z M 218.585938 116.53125 L 218.484375 110.628906 L 215.949219 110.730469 C 215.882812 112.621094 215.949219 114.558594 216.117188 116.464844 C 216.1875 116.515625 216.253906 116.597656 216.289062 116.683594 L 218.601562 116.617188 C 218.585938 116.582031 218.585938 116.566406 218.585938 116.53125 Z M 180.816406 122.28125 C 180.851562 121.523438 180.917969 120.78125 181.019531 120.054688 L 181.054688 119.835938 C 181.140625 119.195312 181.222656 118.523438 181.460938 117.914062 C 181.476562 117.878906 181.492188 117.832031 181.542969 117.78125 C 181.613281 117.730469 181.679688 117.710938 181.730469 117.710938 C 182.355469 117.628906 183.015625 117.628906 183.65625 117.628906 C 183.960938 117.628906 184.28125 117.628906 184.570312 117.609375 L 193.40625 117.324219 C 193.8125 117.308594 194.21875 117.289062 194.625 117.273438 C 195.433594 117.238281 196.28125 117.207031 197.125 117.207031 C 203.175781 117.019531 209.207031 116.851562 215.257812 116.683594 C 215.054688 114.726562 214.984375 112.71875 215.054688 110.746094 L 210.863281 110.917969 C 210.492188 110.933594 210.136719 110.949219 209.765625 110.96875 C 209.121094 111 208.445312 111.035156 207.789062 111.035156 C 207.246094 111.035156 206.757812 111 206.300781 110.949219 C 204.8125 110.765625 203.699219 110.140625 203.074219 109.113281 C 202.246094 107.730469 202.363281 106.179688 202.5 104.695312 C 202.617188 103.363281 202.71875 102.097656 202.210938 100.917969 C 202.195312 100.867188 202.175781 100.796875 202.175781 100.746094 L 182.996094 101.558594 C 182.59375 101.675781 182.203125 101.792969 181.847656 101.929688 C 178.332031 103.3125 175.460938 106.785156 174.195312 111.21875 C 173.246094 114.507812 174.058594 121.507812 174.058594 121.574219 C 174.617188 126.226562 175.324219 130.933594 176.1875 135.535156 C 176.949219 139.632812 177.84375 143.765625 178.859375 147.8125 C 179.363281 149.871094 179.90625 151.894531 180.445312 153.832031 C 180.886719 155.417969 181.441406 157.289062 182.167969 159.058594 C 182.945312 160.964844 183.84375 162.515625 184.890625 163.832031 C 185.902344 165.097656 187.1875 166.261719 188.691406 167.273438 C 189.65625 167.929688 190.703125 168.539062 191.902344 169.128906 C 193.828125 170.070312 195.605469 170.710938 197.328125 171.101562 C 199.035156 171.472656 200.691406 171.554688 202.464844 171.65625 L 203.207031 171.691406 C 205.355469 171.808594 207.515625 171.875 209.664062 171.875 C 210.070312 171.875 210.492188 171.875 210.898438 171.875 C 208.039062 171.371094 205.335938 170.527344 202.820312 169.363281 C 198.714844 167.476562 195.078125 164.742188 192.34375 161.472656 C 189.671875 158.285156 187.609375 154.21875 185.855469 148.707031 C 185.128906 146.429688 184.484375 144.085938 183.875 141.808594 L 183.808594 141.554688 C 183.117188 139.027344 182.40625 136.3125 181.867188 133.628906 C 180.96875 129.363281 180.648438 125.65625 180.816406 122.28125 Z M 164.375 91.085938 C 176.628906 90.597656 189.0625 90.226562 201.332031 90.007812 C 211.269531 89.820312 221.375 89.734375 231.34375 89.734375 C 233.726562 89.734375 236.109375 89.734375 238.492188 89.753906 C 238.558594 89.753906 238.625 89.769531 238.695312 89.804688 C 238.695312 89.484375 238.695312 89.164062 238.675781 88.84375 C 238.507812 86.078125 237.527344 83.195312 235.820312 80.496094 C 232.730469 75.605469 227.507812 71.726562 221.121094 69.617188 C 214.023438 67.257812 206.519531 67.054688 199.441406 67.054688 L 199.253906 67.054688 C 190.484375 67.054688 183.320312 67.5625 176.679688 68.640625 C 172.824219 69.265625 169.140625 70.089844 165.710938 71.101562 C 161.671875 72.300781 158.496094 73.515625 155.691406 74.964844 C 148.675781 78.574219 144.386719 84.035156 143.914062 89.9375 C 143.863281 90.628906 143.863281 91.320312 143.929688 92.011719 C 150.738281 91.675781 157.617188 91.355469 164.375 91.085938 Z M 155.910156 208.554688 C 154.980469 207.355469 154.523438 205.871094 154.085938 204.421875 L 154.050781 204.304688 C 153.492188 202.5 152.96875 200.410156 153.730469 198.484375 C 153.796875 198.335938 153.933594 198.25 154.085938 198.25 C 154.101562 198.25 154.117188 198.25 154.117188 198.25 C 153.898438 197.675781 153.816406 197.050781 153.933594 196.429688 C 154.066406 195.621094 154.441406 194.894531 154.8125 194.203125 C 154.980469 193.867188 155.167969 193.527344 155.320312 193.175781 C 155.554688 192.601562 155.722656 192.011719 155.910156 191.351562 C 155.570312 191.199219 155.199219 191.132812 154.828125 191.132812 C 153.78125 191.132812 152.664062 191.722656 151.9375 192.683594 C 151.128906 193.746094 150.789062 195.046875 150.605469 196.039062 L 150.554688 196.109375 C 150.46875 196.582031 150.382812 197.070312 150.316406 197.542969 C 150.179688 198.484375 150.03125 199.414062 149.792969 200.339844 L 149.640625 200.898438 C 149.453125 201.570312 149.269531 202.261719 149.203125 202.953125 C 149.03125 204.589844 149.707031 206.140625 151.058594 207.203125 C 152.175781 208.082031 153.695312 208.554688 155.4375 208.554688 C 155.589844 208.554688 155.757812 208.554688 155.910156 208.554688 Z M 168.855469 197.472656 C 168.804688 197.644531 168.652344 197.761719 168.480469 197.761719 C 168.414062 197.761719 168.332031 197.742188 168.261719 197.695312 C 168.195312 197.644531 168.128906 197.625 168.058594 197.625 C 167.875 197.625 167.652344 197.777344 167.519531 197.980469 C 167.316406 198.335938 167.554688 198.738281 167.890625 198.941406 C 168.109375 199.078125 168.347656 199.144531 168.601562 199.144531 C 169.257812 199.144531 169.96875 198.65625 170.289062 197.964844 C 170.761719 196.953125 170.289062 195.855469 169.613281 195.230469 C 169.074219 194.742188 168.3125 194.457031 167.484375 194.457031 C 167.148438 194.457031 166.808594 194.488281 166.488281 194.574219 C 165.40625 194.84375 164.511719 195.535156 164.089844 196.410156 C 163.683594 197.238281 163.769531 198.265625 164.34375 199.125 C 165.289062 200.558594 166.84375 200.863281 167.976562 200.863281 C 168.71875 200.863281 169.511719 200.730469 170.308594 200.492188 C 171.320312 200.171875 172.539062 199.683594 173.027344 198.65625 C 173.519531 197.660156 173.398438 196.410156 173.246094 195.316406 C 173.042969 193.933594 172.554688 192.820312 171.828125 192.027344 C 171.101562 191.234375 170.105469 190.796875 169.039062 190.796875 C 168.972656 190.796875 168.90625 190.796875 168.835938 190.796875 C 167.652344 190.847656 166.503906 191.335938 165.421875 191.808594 C 164.445312 192.246094 163.429688 192.703125 162.636719 193.394531 C 161.789062 194.117188 161.367188 195.0625 161.402344 196.160156 C 161.4375 197.289062 161.808594 198.453125 162.195312 199.546875 C 162.261719 199.75 162.347656 199.953125 162.414062 200.136719 C 162.515625 200.222656 162.566406 200.339844 162.550781 200.476562 C 162.90625 201.269531 163.292969 201.890625 163.785156 202.382812 C 164.496094 203.105469 165.472656 203.5625 166.554688 203.644531 C 166.691406 203.664062 166.828125 203.664062 166.960938 203.664062 C 168.855469 203.664062 170.710938 202.601562 172.066406 200.761719 C 172.132812 200.679688 172.199219 200.578125 172.265625 200.476562 C 171.574219 200.898438 170.78125 201.148438 170.121094 201.335938 C 169.359375 201.539062 168.632812 201.65625 167.941406 201.65625 C 167.28125 201.65625 166.65625 201.554688 166.097656 201.371094 C 164.917969 200.980469 163.917969 200.105469 163.414062 199.007812 C 162.890625 197.878906 162.992188 196.597656 163.683594 195.601562 C 164.375 194.589844 165.574219 193.882812 166.875 193.714844 C 167.078125 193.679688 167.300781 193.679688 167.503906 193.679688 C 168.683594 193.679688 169.785156 194.152344 170.476562 194.960938 C 171.339844 195.972656 171.539062 197.304688 170.964844 198.386719 C 170.492188 199.277344 169.5625 199.886719 168.652344 199.886719 C 168.378906 199.886719 168.109375 199.835938 167.855469 199.734375 C 167.25 199.480469 166.808594 198.992188 166.726562 198.433594 C 166.640625 197.945312 166.894531 197.40625 167.332031 197.085938 C 167.570312 196.917969 167.839844 196.816406 168.109375 196.816406 C 168.347656 196.816406 168.566406 196.882812 168.753906 197.019531 C 168.835938 197.152344 168.90625 197.304688 168.855469 197.472656 Z M 161.738281 193.15625 C 162.636719 192.230469 163.851562 191.671875 164.847656 191.234375 C 165.863281 190.78125 166.945312 190.308594 168.09375 190.121094 C 168.109375 189.007812 168.09375 187.761719 167.554688 186.699219 C 167.046875 185.6875 166.148438 185.0625 165.1875 185.0625 L 165.171875 184.894531 L 165.171875 185.0625 C 164.664062 185.0625 164.15625 185.179688 163.648438 185.316406 L 163.429688 185.367188 C 162.804688 185.519531 162.3125 185.636719 161.875 185.769531 C 160.640625 186.140625 159.730469 186.5625 159.019531 187.085938 C 158.191406 187.695312 157.582031 188.519531 157.210938 189.53125 C 156.992188 190.105469 156.839844 190.710938 156.6875 191.285156 C 156.570312 191.742188 156.449219 192.195312 156.296875 192.632812 C 156.097656 193.257812 155.792969 193.847656 155.519531 194.40625 C 155.335938 194.777344 155.132812 195.164062 154.980469 195.550781 C 154.523438 196.632812 154.558594 197.609375 155.066406 198.417969 C 155.859375 199.699219 157.261719 200.324219 159.324219 200.324219 C 160.101562 200.324219 160.878906 200.238281 161.554688 200.15625 C 161.386719 199.734375 161.25 199.277344 161.097656 198.773438 C 160.929688 198.164062 160.726562 197.472656 160.640625 196.75 C 160.472656 195.332031 160.84375 194.085938 161.738281 193.15625 Z M 173.753906 194.203125 C 174.667969 194 175.679688 193.78125 176.695312 193.78125 C 177.050781 193.78125 177.40625 193.816406 177.726562 193.867188 C 178.621094 194.015625 179.414062 194.371094 180.007812 194.910156 C 180.9375 192.535156 179.855469 189.886719 178.332031 188.285156 C 177.523438 187.425781 176.457031 186.664062 175.175781 186.023438 C 173.890625 185.382812 172.621094 184.894531 171.421875 184.609375 C 170.984375 184.507812 170.527344 184.4375 170.121094 184.4375 C 169.34375 184.4375 168.296875 184.640625 167.703125 185.550781 C 167.839844 185.71875 167.957031 185.871094 168.042969 186.023438 C 168.785156 187.203125 168.871094 188.621094 168.855469 190.070312 C 168.855469 190.070312 169.007812 190.070312 169.007812 190.070312 C 170.273438 190.070312 171.457031 190.59375 172.351562 191.554688 C 172.992188 192.230469 173.46875 193.125 173.753906 194.203125 Z M 180.546875 190.257812 C 181.191406 190.105469 181.746094 189.582031 182.035156 188.875 C 182.304688 188.214844 182.339844 187.40625 182.152344 186.394531 C 182 185.636719 181.765625 184.675781 181.222656 183.933594 C 180.800781 183.359375 180.175781 182.9375 179.261719 182.585938 C 177.777344 182.011719 176.050781 181.605469 173.992188 181.351562 C 172.859375 181.21875 171.761719 181.152344 170.746094 181.152344 C 170.019531 181.152344 169.308594 181.183594 168.632812 181.25 C 166.707031 181.453125 165.355469 182.011719 164.496094 182.957031 C 164.984375 183.34375 165.355469 183.816406 165.609375 184.335938 C 166.015625 184.386719 166.371094 184.488281 166.707031 184.675781 C 166.859375 184.757812 167.011719 184.859375 167.164062 184.980469 C 167.773438 184.136719 168.871094 183.628906 170.136719 183.628906 C 170.289062 183.628906 170.441406 183.628906 170.59375 183.648438 C 171.40625 183.714844 172.183594 183.96875 172.910156 184.21875 C 173.652344 184.472656 174.3125 184.742188 174.9375 185.027344 C 177.707031 186.292969 179.636719 188.097656 180.546875 190.257812 Z M 163.867188 183.445312 C 163.71875 183.445312 163.566406 183.34375 163.515625 183.207031 C 163.226562 183.039062 162.90625 182.886719 162.585938 182.785156 C 162.078125 182.617188 161.535156 182.535156 160.996094 182.535156 C 160.335938 182.535156 159.644531 182.652344 158.953125 182.886719 C 157.515625 183.375 156.230469 184.253906 155.183594 185.046875 C 154.21875 185.769531 153.136719 186.664062 152.445312 187.84375 C 151.753906 189.007812 151.617188 190.375 152.074219 191.4375 C 152.902344 190.746094 153.898438 190.339844 154.828125 190.339844 C 155.269531 190.339844 155.691406 190.425781 156.097656 190.59375 C 156.164062 190.339844 156.230469 190.089844 156.316406 189.835938 C 156.722656 188.554688 157.3125 187.574219 158.125 186.851562 C 158.882812 186.175781 159.847656 185.652344 161.164062 185.214844 C 161.671875 185.046875 162.214844 184.894531 162.871094 184.726562 L 163.125 184.660156 C 163.648438 184.523438 164.171875 184.386719 164.714844 184.339844 C 164.476562 183.984375 164.207031 183.695312 163.867188 183.445312 Z M 160.082031 210.105469 C 160.859375 210.273438 161.65625 210.339844 162.3125 210.390625 C 163.140625 210.457031 163.988281 210.527344 164.816406 210.527344 L 164.949219 210.527344 C 166.199219 210.507812 168.429688 210.238281 169.480469 208.535156 C 167.855469 207.59375 166.523438 206.175781 165.726562 204.507812 C 165.695312 204.4375 165.675781 204.371094 165.695312 204.304688 C 165.101562 204.167969 164.5625 203.949219 164.089844 203.644531 C 163.175781 203.074219 162.449219 202.164062 161.875 200.878906 C 161.0625 201 160.21875 201.082031 159.355469 201.082031 C 157.464844 201.082031 156.046875 200.578125 155.015625 199.53125 C 154.792969 199.3125 154.59375 199.058594 154.441406 198.804688 C 153.867188 200.324219 154.203125 201.976562 154.609375 203.410156 L 154.660156 203.59375 C 155.082031 205.097656 155.539062 206.664062 156.417969 207.894531 C 157.195312 209.023438 158.429688 209.765625 160.082031 210.105469 Z M 175.765625 209.582031 C 175.175781 209.699219 174.566406 209.75 173.972656 209.75 C 173.113281 209.75 172.265625 209.632812 171.472656 209.394531 C 171.035156 209.261719 170.613281 209.109375 170.1875 208.90625 C 169.429688 210.207031 167.90625 211.066406 165.980469 211.25 C 165.625 211.285156 165.253906 211.300781 164.832031 211.300781 C 164.222656 211.300781 163.597656 211.269531 162.972656 211.21875 C 162.179688 211.167969 161.335938 211.097656 160.523438 210.964844 C 160.183594 210.914062 159.863281 210.847656 159.558594 210.761719 C 160.945312 212.464844 163.074219 213.644531 165.507812 214.035156 C 166.167969 214.136719 166.84375 214.183594 167.535156 214.183594 C 168.296875 214.183594 169.074219 214.117188 169.867188 214 C 171.167969 213.796875 172.691406 213.492188 173.941406 212.785156 C 175.023438 212.179688 176.035156 210.914062 175.765625 209.582031 Z M 177.421875 208.265625 C 177.960938 208.03125 178.453125 207.742188 178.910156 207.441406 C 179.347656 207.121094 179.804688 206.78125 180.058594 206.34375 C 180.328125 205.871094 180.125 205.449219 179.886719 204.960938 L 179.855469 204.894531 C 179.566406 204.304688 179.5 203.832031 179.636719 203.324219 C 179.6875 203.125 179.789062 202.902344 179.921875 202.652344 C 179.9375 202.53125 180.007812 202.414062 180.109375 202.347656 L 180.3125 202.027344 C 180.632812 201.519531 180.800781 201.066406 180.851562 200.578125 C 180.902344 199.988281 180.816406 199.363281 180.75 198.824219 C 180.683594 198.265625 180.597656 197.644531 180.429688 197.050781 C 180.226562 196.359375 179.90625 195.820312 179.464844 195.433594 C 179.058594 195.078125 178.554688 194.828125 177.945312 194.675781 C 177.554688 194.574219 177.132812 194.523438 176.679688 194.523438 C 175.75 194.523438 174.820312 194.726562 173.90625 194.929688 C 173.941406 195.113281 173.972656 195.300781 173.992188 195.46875 C 174.144531 196.714844 174.210938 198.132812 173.519531 199.261719 C 173.550781 199.296875 173.570312 199.328125 173.585938 199.378906 C 173.636719 199.496094 173.636719 199.617188 173.570312 199.71875 C 172.183594 202.414062 170.003906 204.117188 167.601562 204.386719 C 167.402344 204.4375 167.179688 204.457031 166.945312 204.457031 C 166.808594 204.457031 166.675781 204.457031 166.539062 204.4375 C 167.484375 206.226562 169.058594 207.625 170.882812 208.367188 C 171.863281 208.773438 172.894531 208.976562 173.972656 208.976562 C 175.15625 208.976562 176.355469 208.722656 177.421875 208.265625 Z M 183.082031 205.972656 C 183.097656 205.164062 182.914062 204.371094 182.558594 203.644531 C 181.847656 203.578125 181.15625 203.375 180.546875 203.15625 C 180.34375 203.542969 180.3125 203.847656 180.394531 204.136719 C 180.445312 204.335938 180.546875 204.523438 180.648438 204.726562 C 180.835938 205.078125 181.003906 205.449219 180.988281 205.90625 C 180.96875 206.394531 180.699219 206.867188 180.210938 207.355469 C 179.804688 207.742188 179.3125 208.113281 178.671875 208.46875 C 178.011719 208.855469 177.285156 209.160156 176.492188 209.363281 C 176.558594 209.714844 176.578125 210.054688 176.527344 210.40625 C 177.050781 210.59375 177.605469 210.695312 178.183594 210.695312 C 179.160156 210.695312 180.160156 210.40625 180.96875 209.867188 C 182.253906 209.058594 183.03125 207.59375 183.082031 205.972656 Z M 185.414062 196.664062 C 185.296875 194.976562 185.058594 193.78125 184.621094 192.71875 C 184.113281 191.472656 183.335938 190.460938 182.390625 189.800781 C 181.984375 190.390625 181.425781 190.8125 180.800781 190.980469 C 181.273438 192.535156 181.207031 194.066406 180.632812 195.367188 C 180.613281 195.417969 180.582031 195.46875 180.546875 195.5 C 180.582031 195.550781 180.613281 195.601562 180.648438 195.652344 C 181.359375 196.765625 181.511719 198.25 181.613281 199.429688 C 181.664062 199.953125 181.695312 200.628906 181.527344 201.300781 C 181.410156 201.757812 181.191406 202.144531 180.953125 202.515625 C 181.613281 202.734375 182.304688 202.9375 182.964844 202.9375 C 183.371094 202.9375 183.707031 202.871094 184.027344 202.734375 C 184.839844 202.382812 185.3125 201.570312 185.464844 200.308594 C 185.582031 199.09375 185.5 197.863281 185.414062 196.664062 Z M 200.269531 207.625 C 199.726562 207.59375 199.136719 207.472656 198.527344 207.289062 C 197.835938 207.085938 197.175781 206.800781 196.550781 206.546875 C 195.941406 206.292969 195.300781 206.023438 194.707031 205.703125 C 193.390625 204.996094 192.496094 204.101562 192.054688 203.074219 C 191.582031 201.960938 191.683594 200.628906 192.34375 199.09375 C 192.898438 197.8125 193.625 196.867188 194.523438 196.261719 C 195.28125 195.738281 196.230469 195.46875 197.261719 195.46875 C 198.765625 195.46875 200.371094 196.058594 201.535156 197.035156 C 202.464844 197.828125 203.074219 198.855469 203.242188 199.953125 C 203.429688 201.132812 203.140625 202.296875 202.464844 203.140625 C 201.789062 203.984375 200.691406 204.507812 199.203125 204.726562 C 198.832031 204.777344 198.492188 204.808594 198.171875 204.808594 C 197.089844 204.808594 196.246094 204.507812 195.671875 203.914062 C 194.828125 203.054688 194.554688 201.742188 194.996094 200.558594 C 195.402344 199.429688 196.3125 198.503906 197.460938 198.097656 C 197.851562 197.964844 198.257812 197.878906 198.664062 197.878906 C 199.492188 197.878906 200.199219 198.183594 200.671875 198.738281 C 201.296875 199.464844 201.601562 200.679688 200.960938 201.589844 C 200.894531 201.691406 200.773438 201.742188 200.65625 201.742188 C 200.503906 201.742188 200.371094 201.65625 200.300781 201.539062 C 200.25 201.421875 200.25 201.285156 200.335938 201.183594 C 200.554688 200.878906 200.640625 200.507812 200.554688 200.136719 C 200.402344 199.261719 199.640625 198.636719 198.714844 198.621094 C 197.683594 198.621094 196.703125 199.160156 196.09375 200.039062 C 195.46875 200.929688 195.382812 202.027344 195.839844 202.871094 C 196.363281 203.847656 197.429688 204.066406 198.222656 204.066406 C 198.308594 204.066406 198.410156 204.066406 198.492188 204.066406 C 199.863281 204 200.910156 203.628906 201.601562 203.003906 C 202.261719 202.414062 202.617188 201.488281 202.566406 200.476562 C 202.464844 198.351562 200.589844 196.917969 198.765625 196.445312 C 198.257812 196.3125 197.75 196.242188 197.261719 196.242188 C 196.566406 196.242188 195.941406 196.378906 195.402344 196.648438 C 194.554688 197.050781 193.847656 197.8125 193.289062 198.90625 C 192.613281 200.207031 192.375 201.351562 192.597656 202.296875 C 192.867188 203.476562 193.796875 204.285156 194.539062 204.757812 C 195.554688 205.398438 196.703125 205.855469 197.917969 206.308594 C 198.695312 206.597656 199.726562 206.933594 200.742188 206.933594 C 200.996094 206.933594 201.246094 206.917969 201.484375 206.867188 C 203.816406 206.460938 205 204.066406 205.101562 202.011719 C 205.234375 199.53125 204.390625 197.289062 202.800781 195.855469 C 202.464844 195.550781 202.09375 195.265625 201.671875 194.996094 C 200.894531 194.488281 200.015625 194.101562 199.152344 193.730469 L 198.730469 193.546875 C 198.390625 193.394531 197.917969 193.324219 197.242188 193.324219 C 196.9375 193.324219 196.652344 193.34375 196.363281 193.359375 L 195.976562 193.375 C 193.898438 193.445312 192.292969 194.050781 191.210938 195.179688 C 191.175781 195.265625 191.125 195.332031 191.058594 195.367188 C 191.007812 195.433594 190.972656 195.46875 190.941406 195.5 C 190.316406 196.277344 189.976562 197.1875 189.976562 198.0625 C 189.976562 198.503906 190.0625 198.957031 190.144531 199.378906 C 190.28125 200.039062 190.417969 200.730469 190.246094 201.4375 C 190.128906 201.992188 189.890625 202.5 189.65625 202.988281 C 189.453125 203.410156 189.25 203.847656 189.132812 204.285156 C 188.878906 205.246094 189.132812 206.292969 189.859375 207.171875 C 190.433594 207.863281 191.242188 208.433594 192.425781 208.957031 C 193.574219 209.480469 194.707031 209.75 195.773438 209.785156 L 195.941406 209.785156 C 197.785156 209.785156 199.40625 208.957031 200.269531 207.625 Z M 195.519531 192.601562 C 195.855469 192.582031 196.210938 192.566406 196.550781 192.566406 C 196.820312 192.566406 197.074219 192.582031 197.34375 192.601562 C 197.394531 192.601562 197.445312 192.601562 197.496094 192.601562 C 197.785156 192.601562 198.039062 192.550781 198.324219 192.5 C 198.460938 192.464844 198.613281 192.449219 198.746094 192.433594 C 198.914062 192.414062 199.101562 192.382812 199.269531 192.363281 C 198.644531 192.113281 197.988281 191.992188 197.328125 191.992188 C 197.160156 191.992188 196.988281 192.011719 196.804688 192.027344 C 196.078125 192.09375 195.367188 192.332031 194.726562 192.703125 C 194.996094 192.652344 195.25 192.617188 195.519531 192.601562 Z M 202.886719 208.804688 C 202.800781 208.804688 202.699219 208.804688 202.617188 208.804688 C 201.90625 208.804688 201.230469 208.6875 200.589844 208.46875 C 200.167969 208.976562 199.640625 209.414062 199.015625 209.75 C 199.136719 209.75 199.238281 209.765625 199.355469 209.765625 C 200.589844 209.765625 201.824219 209.429688 202.886719 208.804688 Z M 207.617188 199.988281 C 207.363281 198.941406 207.128906 198.113281 206.839844 197.339844 C 206.265625 195.789062 205.203125 194.574219 203.730469 193.832031 C 202.699219 193.308594 201.535156 193.039062 200.25 193.039062 C 200.046875 193.039062 199.84375 193.039062 199.640625 193.054688 C 200.046875 193.226562 200.4375 193.425781 200.859375 193.695312 C 201.113281 193.867188 201.382812 194.015625 201.636719 194.167969 C 202.09375 194.4375 202.566406 194.707031 203.003906 195.0625 C 203.714844 195.652344 204.304688 196.328125 204.710938 197.070312 C 205.335938 198.164062 205.691406 199.464844 205.792969 200.914062 C 205.894531 202.398438 205.640625 203.746094 205.066406 204.859375 C 204.492188 205.972656 203.597656 206.832031 202.550781 207.289062 C 202.109375 207.472656 201.636719 207.59375 201.113281 207.625 C 201.078125 207.691406 201.046875 207.761719 200.996094 207.828125 C 201.519531 207.996094 202.058594 208.0625 202.617188 208.0625 C 203.816406 208.0625 204.980469 207.660156 205.894531 206.953125 C 206.488281 206.480469 206.992188 205.855469 207.332031 205.164062 C 207.5 204.828125 207.636719 204.457031 207.738281 204.066406 C 208.058594 202.953125 208.007812 201.65625 207.617188 199.988281 Z M 223.332031 172.027344 C 221.457031 172.296875 219.546875 172.433594 217.65625 172.433594 C 214.632812 172.636719 211.910156 172.734375 209.359375 172.734375 C 208.785156 172.734375 208.210938 172.734375 207.617188 172.71875 C 203.5625 172.636719 199.929688 172.5 196.398438 171.773438 C 194.707031 171.4375 193.101562 170.644531 191.683594 169.953125 C 189.925781 169.109375 188.457031 168.21875 187.1875 167.238281 C 185.734375 166.125 184.484375 164.828125 183.503906 163.410156 C 182.558594 162.046875 181.730469 160.410156 180.988281 158.4375 C 180.3125 156.648438 179.804688 154.828125 179.296875 152.957031 C 178.738281 150.898438 178.199219 148.808594 177.691406 146.734375 C 176.695312 142.601562 175.816406 138.402344 175.074219 134.238281 C 174.398438 130.425781 173.789062 126.464844 173.296875 122.433594 C 173.09375 121.640625 171.980469 113.480469 174.042969 109.011719 C 175.175781 106.566406 177.183594 103.394531 180.414062 101.640625 C 180.414062 101.640625 159.628906 102.5 159.628906 102.5 C 159.375 102.5 159.207031 102.332031 159.207031 102.097656 C 159.207031 101.878906 159.339844 101.660156 159.628906 101.640625 L 182.914062 100.679688 L 182.945312 100.664062 L 183.066406 100.628906 L 183.148438 100.628906 C 183.21875 100.628906 183.269531 100.648438 183.335938 100.664062 L 226.171875 98.910156 C 226.59375 98.894531 227.035156 98.875 227.492188 98.875 C 230.449219 98.808594 233.8125 98.707031 236.058594 96.648438 C 237.578125 95.265625 238.492188 93.109375 238.660156 90.578125 C 238.609375 90.597656 238.558594 90.613281 238.492188 90.613281 C 236.09375 90.597656 233.691406 90.597656 231.292969 90.597656 C 226.730469 90.597656 222.132812 90.613281 217.640625 90.648438 C 205.386719 90.75 192.949219 90.984375 180.683594 91.355469 C 168.601562 91.726562 156.265625 92.230469 144.0625 92.871094 C 144.417969 94.964844 145.332031 96.851562 146.71875 98.371094 C 148.542969 100.359375 151.71875 101.742188 154.457031 101.742188 C 154.691406 101.742188 154.945312 101.726562 155.183594 101.710938 C 155.183594 101.691406 155.234375 101.691406 155.300781 101.691406 C 155.4375 101.691406 155.570312 101.757812 155.65625 101.859375 C 155.742188 101.960938 155.773438 102.078125 155.757812 102.214844 C 155.707031 102.5 155.640625 102.957031 155.554688 103.429688 C 155.46875 103.902344 155.402344 104.355469 155.351562 104.644531 C 154.625 109.214844 153.832031 113.867188 153.019531 118.472656 C 152.210938 123.074219 151.347656 127.746094 150.46875 132.332031 C 149.589844 136.902344 148.660156 141.523438 147.714844 146.09375 C 146.769531 150.644531 145.769531 155.265625 144.757812 159.800781 C 144.164062 162.464844 143.558594 165.132812 142.933594 167.777344 C 142.609375 169.128906 142.308594 170.460938 141.984375 171.808594 C 141.78125 172.652344 141.429688 173.425781 141.089844 174.1875 C 140.972656 174.4375 140.855469 174.710938 140.753906 174.960938 C 140.449219 175.671875 140.09375 176.394531 139.652344 177.171875 C 139.230469 177.894531 138.773438 178.636719 138.335938 179.328125 C 137.828125 180.140625 137.304688 180.964844 136.847656 181.792969 C 138.691406 184.085938 139.570312 187.070312 139.0625 190.054688 C 138.875 191.167969 138.523438 192.246094 137.980469 193.257812 C 138.167969 193.359375 138.65625 193.613281 140.042969 194.21875 L 140.128906 194.253906 C 141.648438 194.929688 143.269531 195.382812 144.960938 195.601562 C 145.128906 195.621094 145.28125 195.636719 145.449219 195.652344 C 145.46875 195.652344 145.484375 195.652344 145.5 195.652344 C 144.671875 195.300781 143.929688 194.878906 143.320312 194.371094 C 142.070312 193.359375 141.207031 191.925781 140.753906 190.070312 C 140.515625 189.109375 140.378906 188.113281 140.246094 187.035156 C 140.226562 186.917969 140.261719 186.800781 140.347656 186.714844 C 140.414062 186.632812 140.515625 186.582031 140.617188 186.582031 C 140.667969 186.582031 140.71875 186.597656 140.769531 186.613281 C 143.710938 187.894531 146.109375 190.359375 147.34375 193.359375 C 147.648438 194.101562 147.882812 194.894531 148.035156 195.71875 C 148.675781 195.703125 149.285156 195.652344 149.878906 195.570312 C 150.164062 194.21875 150.554688 193.242188 151.109375 192.414062 C 151.210938 192.261719 151.332031 192.09375 151.464844 191.960938 C 150.875 190.847656 150.855469 189.378906 151.433594 188.046875 C 152.074219 186.546875 153.339844 185.433594 154.253906 184.726562 C 156.027344 183.324219 158.410156 181.722656 160.980469 181.722656 C 161.46875 181.722656 161.976562 181.792969 162.449219 181.910156 C 162.941406 182.027344 163.414062 182.230469 163.835938 182.484375 C 164.730469 181.472656 166.097656 180.8125 167.890625 180.542969 C 168.753906 180.410156 169.699219 180.339844 170.679688 180.339844 C 171.625 180.339844 172.621094 180.390625 173.703125 180.527344 C 176 180.78125 177.910156 181.21875 179.550781 181.859375 C 180.5625 182.246094 181.292969 182.753906 181.78125 183.394531 C 182.40625 184.21875 182.695312 185.25 182.863281 186.042969 C 183.117188 187.273438 183.082031 188.285156 182.761719 189.109375 C 183.453125 189.566406 184.046875 190.171875 184.535156 190.898438 C 184.773438 191.25 184.976562 191.621094 185.160156 192.027344 C 185.210938 192.144531 185.246094 192.261719 185.277344 192.382812 C 185.296875 192.449219 185.328125 192.535156 185.347656 192.601562 C 185.378906 192.683594 185.414062 192.769531 185.449219 192.835938 C 185.515625 192.972656 185.566406 193.125 185.617188 193.257812 C 185.71875 193.578125 185.804688 193.917969 185.871094 194.253906 C 186.003906 194.878906 186.105469 195.550781 186.15625 196.261719 C 186.226562 197.035156 186.242188 197.8125 186.257812 198.605469 C 186.257812 198.6875 186.257812 198.773438 186.257812 198.855469 L 189.265625 198.738281 C 189.183594 198.164062 189.183594 197.644531 189.300781 197.136719 C 189.386719 196.75 189.519531 196.359375 189.707031 195.972656 C 189.011719 195.921875 188.355469 195.667969 187.78125 195.230469 C 186.699219 194.40625 186.039062 193.074219 185.953125 191.453125 C 185.871094 189.769531 186.429688 188.097656 186.917969 186.632812 C 186.96875 186.480469 187.105469 186.363281 187.273438 186.363281 C 187.375 186.363281 187.457031 186.394531 187.527344 186.460938 C 188.8125 187.609375 190.164062 188.789062 190.957031 190.359375 C 191.546875 191.503906 191.769531 192.703125 191.597656 193.816406 C 192.019531 193.527344 192.476562 193.292969 192.984375 193.105469 C 193 193.074219 193.035156 193.039062 193.050781 193.003906 C 194.183594 191.875 195.707031 191.25 197.34375 191.25 C 197.699219 191.25 198.070312 191.285156 198.425781 191.351562 C 198.441406 191.300781 198.460938 191.234375 198.511719 191.183594 C 198.664062 191 198.832031 190.832031 198.984375 190.660156 C 198.984375 190.660156 199.015625 190.628906 199.015625 190.628906 C 198.695312 189.429688 198.425781 188.265625 198.425781 187.054688 C 198.425781 185.941406 198.714844 184.929688 199.253906 184.152344 C 199.660156 183.5625 200.234375 183.023438 201.046875 182.449219 C 201.417969 182.195312 201.804688 181.960938 202.195312 181.722656 C 203.242188 181.082031 204.324219 180.410156 205.015625 179.378906 C 205.082031 179.277344 205.203125 179.210938 205.335938 179.210938 C 205.507812 179.210938 205.640625 179.3125 205.691406 179.480469 C 205.996094 180.476562 206.097656 181.539062 205.960938 182.585938 C 205.726562 184.4375 204.863281 186.175781 203.546875 187.375 C 205.386719 186.546875 207.382812 186.089844 209.410156 186.074219 C 210.507812 185.957031 211.589844 185.550781 212.585938 185.164062 L 213.007812 184.996094 C 213.90625 184.640625 214.835938 184.269531 215.78125 184.066406 C 216.339844 183.949219 216.914062 183.882812 217.503906 183.882812 C 218.113281 183.882812 218.71875 183.949219 219.378906 184.066406 C 220.003906 184.1875 220.628906 184.355469 221.238281 184.523438 C 222.421875 184.84375 223.65625 185.164062 224.871094 185.164062 C 225.546875 185.164062 226.15625 185.0625 226.730469 184.859375 L 226.765625 184.84375 L 226.847656 184.828125 C 226.984375 184.828125 227.101562 184.894531 227.167969 185.027344 C 227.238281 185.148438 227.238281 185.300781 227.167969 185.398438 C 226.441406 186.5625 225.496094 187.558594 224.363281 188.351562 C 222.691406 189.515625 220.730469 190.121094 218.652344 190.121094 C 218.078125 190.121094 217.519531 190.070312 216.945312 189.988281 C 215.710938 189.785156 214.511719 189.3125 213.179688 188.535156 L 212.941406 188.402344 C 211.589844 187.609375 210.320312 186.867188 208.769531 186.867188 C 208.632812 186.867188 208.496094 186.867188 208.34375 186.882812 C 206.503906 187.035156 204.679688 187.59375 203.023438 188.484375 C 203.277344 188.453125 203.527344 188.453125 203.765625 188.453125 C 205.574219 188.453125 207.28125 189.144531 208.9375 189.800781 C 210.085938 190.257812 211.269531 190.730469 212.46875 190.964844 C 212.601562 191 212.703125 191.101562 212.738281 191.25 C 212.773438 191.386719 212.722656 191.523438 212.621094 191.605469 C 211.824219 192.230469 210.914062 192.667969 209.933594 192.886719 C 209.425781 193.003906 208.902344 193.054688 208.394531 193.054688 C 207.195312 193.054688 205.980469 192.734375 204.882812 192.113281 C 204.507812 191.910156 204.136719 191.671875 203.78125 191.421875 C 203.125 191 202.464844 190.558594 201.722656 190.273438 C 201.46875 190.171875 201.027344 189.96875 200.773438 190.054688 C 200.488281 190.15625 200.167969 190.507812 199.964844 190.730469 C 199.878906 190.8125 199.238281 191.589844 199.1875 191.570312 C 199.742188 191.742188 200.269531 192.011719 200.757812 192.332031 C 200.773438 192.347656 200.792969 192.347656 200.792969 192.363281 C 202.226562 192.449219 203.527344 192.835938 204.644531 193.527344 C 205.386719 193.984375 206.011719 194.558594 206.519531 195.230469 C 207.027344 195.890625 207.414062 196.679688 207.753906 197.792969 C 207.753906 197.8125 207.769531 197.84375 207.769531 197.863281 C 215.171875 197.441406 221.726562 196.984375 227.796875 196.460938 C 231.800781 196.125 235.71875 195.738281 239.4375 195.332031 C 239.960938 195.28125 240.503906 195.230469 241.042969 195.179688 C 243.796875 194.929688 246.652344 194.65625 249.019531 193.359375 C 250.421875 192.601562 251.417969 191.472656 251.941406 190.089844 C 252.585938 188.367188 252.433594 186.582031 252.195312 185.398438 C 251.65625 182.71875 250.203125 180.171875 247.953125 178.046875 C 243.863281 174.136719 238 172.0625 230.53125 171.875 C 230.09375 171.859375 229.636719 171.859375 229.199219 171.859375 C 227.523438 171.808594 225.699219 171.875 223.332031 172.027344 Z M 235.011719 167.726562 C 239.371094 165.6875 243.003906 162.957031 245.773438 159.582031 C 248.460938 156.328125 250.558594 152.316406 251.992188 147.695312 C 253.328125 143.410156 254.054688 138.640625 254.222656 133.140625 C 254.394531 127.964844 254.089844 122.179688 253.71875 116.667969 L 250.910156 116.71875 C 246.519531 116.800781 241.9375 116.902344 237.664062 116.988281 C 230.398438 117.15625 223.148438 117.339844 215.882812 117.542969 C 215.847656 117.558594 215.796875 117.558594 215.761719 117.558594 C 215.730469 117.558594 215.695312 117.558594 215.660156 117.542969 L 209.527344 117.710938 C 200.519531 117.964844 191.292969 118.25 182.117188 118.554688 C 181.917969 119.632812 181.78125 120.730469 181.695312 121.808594 C 181.308594 127.324219 182.441406 132.789062 183.589844 137.390625 C 184.25 140.054688 184.976562 142.636719 185.582031 144.792969 C 186.15625 146.835938 186.867188 149.246094 187.78125 151.640625 C 189.605469 156.429688 192.003906 160.207031 195.128906 163.140625 C 198.207031 166.042969 202.023438 168.335938 206.214844 169.75 C 209.714844 170.949219 213.53125 171.554688 217.539062 171.554688 L 217.742188 171.554688 C 218.601562 171.488281 219.464844 171.421875 220.34375 171.351562 C 221.375 171.269531 222.386719 171.203125 223.417969 171.117188 C 227.507812 170.5625 231.429688 169.414062 235.011719 167.726562 Z M 244.640625 152.835938 C 244.964844 152.835938 245.25 152.667969 245.417969 152.367188 C 249.578125 144.8125 251.535156 136.261719 251.097656 127.644531 C 250.980469 125.214844 250.660156 122.769531 250.132812 120.34375 C 250.050781 119.902344 249.710938 119.652344 249.289062 119.652344 C 248.984375 119.652344 248.664062 119.804688 248.476562 120.039062 C 248.292969 120.257812 248.242188 120.546875 248.292969 120.832031 C 250 128.839844 249.425781 137.207031 246.636719 145.011719 C 245.875 147.171875 244.894531 149.3125 243.765625 151.40625 C 243.59375 151.707031 243.59375 152.046875 243.765625 152.332031 C 243.949219 152.636719 244.289062 152.835938 244.640625 152.835938 Z M 241.28125 157.289062 L 241.3125 157.289062 C 241.582031 157.273438 241.820312 157.171875 241.988281 157.003906 L 243.339844 155.535156 C 243.527344 155.332031 243.613281 155.113281 243.613281 154.859375 C 243.613281 154.609375 243.492188 154.339844 243.324219 154.1875 C 243.136719 154.019531 242.902344 153.917969 242.648438 153.917969 C 242.378906 153.933594 242.140625 154.035156 241.972656 154.203125 L 240.621094 155.671875 C 240.453125 155.855469 240.351562 156.09375 240.351562 156.34375 C 240.351562 156.597656 240.46875 156.867188 240.636719 157.019531 C 240.824219 157.1875 241.042969 157.289062 241.28125 157.289062 Z M 230.71875 210.660156 C 230.617188 210.507812 230.515625 210.359375 230.429688 210.207031 C 229.925781 209.464844 229.332031 208.839844 228.65625 208.316406 C 227.304688 207.304688 225.597656 206.714844 223.875 206.679688 L 223.707031 206.679688 C 223.132812 206.679688 222.554688 206.75 222.015625 206.867188 L 221.878906 206.902344 C 221.390625 207 220.765625 207.136719 220.476562 207.625 C 220.34375 207.828125 220.445312 207.996094 220.511719 208.097656 L 220.546875 208.164062 C 220.613281 208.300781 220.679688 208.433594 220.765625 208.570312 C 221.375 209.597656 222.285156 210.507812 223.417969 211.199219 C 224.789062 212.042969 226.476562 212.582031 228.605469 212.835938 C 229.230469 212.921875 229.839844 212.972656 230.464844 213.003906 C 230.9375 213.039062 231.496094 213.140625 231.96875 213.054688 C 232.054688 213.039062 232.136719 213.023438 232.207031 212.988281 C 231.984375 212.632812 231.816406 212.246094 231.597656 211.890625 C 231.34375 211.46875 230.988281 211.082031 230.71875 210.660156 Z M 137.726562 209.363281 C 139.652344 209.363281 141.699219 209.023438 143.980469 208.316406 C 145.433594 207.863281 147.039062 207.421875 148.324219 206.613281 C 148.441406 206.546875 148.644531 206.394531 148.457031 206.277344 C 148.441406 206.226562 148.40625 206.191406 148.355469 206.160156 L 146.445312 204.640625 C 146.414062 204.605469 146.363281 204.589844 146.3125 204.574219 C 144.589844 203.308594 142.410156 202.652344 139.976562 202.652344 C 137.8125 202.652344 135.480469 203.222656 133.0625 204.355469 C 131.914062 204.894531 130.730469 205.550781 129.347656 206.429688 C 129.226562 206.496094 129.160156 206.628906 129.160156 206.765625 C 129.160156 206.902344 129.226562 207.019531 129.347656 207.085938 C 131.476562 208.335938 133.890625 209.09375 136.359375 209.3125 C 136.832031 209.347656 137.269531 209.363281 137.726562 209.363281 Z M 150.65625 208.722656 C 150.179688 208.6875 149.707031 208.671875 149.269531 208.671875 C 145.941406 208.671875 143.457031 209.648438 141.882812 211.589844 C 141.359375 212.230469 140.988281 212.953125 140.769531 213.695312 C 140.734375 213.796875 140.753906 213.914062 140.820312 214.015625 C 140.871094 214.101562 140.953125 214.167969 141.054688 214.167969 C 141.480469 214.234375 141.933594 214.269531 142.359375 214.269531 C 144.910156 214.269531 147.425781 213.222656 149.253906 211.402344 C 149.554688 211.097656 149.84375 210.777344 150.097656 210.425781 C 150.332031 210.105469 150.570312 209.75 150.839844 209.445312 C 151.042969 209.210938 151.09375 208.753906 150.65625 208.722656 Z M 139.484375 209.816406 L 139.28125 209.816406 C 136.375 209.816406 133.503906 211.167969 131.59375 213.410156 C 131.035156 214.066406 130.5625 214.792969 130.207031 215.550781 C 130.140625 215.6875 130.15625 215.820312 130.226562 215.9375 C 130.292969 216.058594 130.410156 216.109375 130.546875 216.125 L 130.765625 216.125 C 133.621094 216.125 136.476562 214.84375 138.421875 212.667969 C 138.976562 212.042969 139.449219 211.351562 139.839844 210.628906 C 139.90625 210.507812 139.90625 210.390625 139.839844 210.273438 C 139.855469 210.171875 139.839844 210.070312 139.789062 209.988281 C 139.722656 209.886719 139.621094 209.816406 139.484375 209.816406 Z M 210.660156 205.398438 C 210.914062 205.398438 211.25 205.265625 211.488281 205.164062 C 211.574219 205.128906 211.640625 205.097656 211.675781 205.097656 C 212.25 204.925781 212.875 204.859375 213.601562 204.859375 C 214.089844 204.859375 214.597656 204.894531 215.238281 204.960938 C 215.796875 205.027344 216.355469 205.113281 216.894531 205.179688 C 217.925781 205.332031 219.007812 205.484375 220.074219 205.535156 C 220.714844 205.570312 221.355469 205.585938 222 205.585938 C 224.6875 205.585938 227.390625 205.246094 230.007812 204.589844 C 231.800781 204.136719 233.589844 203.527344 235.332031 202.753906 C 235.46875 202.683594 235.550781 202.550781 235.535156 202.382812 C 235.515625 202.210938 235.398438 202.078125 235.246094 202.042969 C 233.945312 201.757812 232.644531 201.402344 231.378906 201.066406 C 228.976562 200.425781 226.492188 199.765625 223.976562 199.480469 C 223.097656 199.378906 222.253906 199.328125 221.425781 199.328125 C 218.484375 199.328125 215.933594 199.988281 213.835938 201.269531 C 213.042969 201.757812 212.332031 202.332031 211.726562 202.972656 C 211.402344 203.308594 211.117188 203.664062 210.847656 204.035156 C 210.8125 204.066406 210.761719 204.136719 210.710938 204.203125 C 210.472656 204.472656 210.152344 204.859375 210.273438 205.164062 C 210.304688 205.25 210.390625 205.398438 210.660156 205.398438 Z M 219.953125 211.03125 C 218.128906 209.042969 216.238281 206.96875 213.414062 206.328125 C 213.027344 206.242188 212.433594 206.140625 211.808594 206.140625 C 211.234375 206.140625 210.761719 206.242188 210.40625 206.429688 L 210.304688 206.496094 L 210.289062 206.5625 C 210.253906 206.648438 210.273438 206.730469 210.339844 206.816406 C 210.726562 207.320312 211.066406 207.863281 211.402344 208.382812 C 211.640625 208.753906 211.875 209.125 212.128906 209.480469 C 212.671875 210.273438 213.3125 210.980469 214.058594 211.605469 C 215.511719 212.851562 217.265625 213.714844 219.125 214.117188 C 219.921875 214.285156 220.714844 214.386719 221.527344 214.386719 C 221.796875 214.386719 222.082031 214.371094 222.355469 214.355469 C 222.523438 214.335938 222.65625 214.21875 222.707031 214.066406 C 222.757812 213.933594 222.707031 213.78125 222.589844 213.679688 C 221.644531 212.886719 220.78125 211.941406 219.953125 211.03125 Z M 233.152344 205.449219 C 231.984375 205.449219 230.902344 205.789062 229.824219 206.160156 C 230.007812 206.089844 230.480469 206.664062 230.617188 206.78125 C 230.902344 207.035156 231.359375 207.203125 231.714844 207.339844 C 232.492188 207.625 233.320312 207.777344 234.148438 207.777344 C 235.195312 207.777344 236.582031 207.574219 237.425781 206.902344 C 237.003906 206.394531 236.109375 206.058594 235.5 205.839844 C 234.738281 205.585938 233.945312 205.449219 233.152344 205.449219 Z M 233.152344 205.449219 " fill-opacity="1" fill-rule="nonzero"/></g><g fill="#f5f5f5" fill-opacity="1"><g transform="translate(154.784862, 294.295497)"><g><path d="M 8.078125 -4.09375 C 8.078125 -3.1875 7.914062 -2.414062 7.59375 -1.78125 C 7.269531 -1.144531 6.875 -0.664062 6.40625 -0.34375 L 6.453125 -0.34375 C 7.035156 -0.34375 7.5625 -0.46875 8.03125 -0.71875 C 8.507812 -0.976562 8.9375 -1.3125 9.3125 -1.71875 C 9.695312 -2.125 10.039062 -2.578125 10.34375 -3.078125 C 10.644531 -3.578125 10.910156 -4.0625 11.140625 -4.53125 C 11.191406 -4.632812 11.265625 -4.710938 11.359375 -4.765625 C 11.453125 -4.828125 11.550781 -4.859375 11.65625 -4.859375 C 11.820312 -4.859375 11.953125 -4.800781 12.046875 -4.6875 C 12.148438 -4.570312 12.203125 -4.445312 12.203125 -4.3125 C 12.203125 -4.226562 12.1875 -4.15625 12.15625 -4.09375 C 11.90625 -3.519531 11.601562 -2.945312 11.25 -2.375 C 10.894531 -1.8125 10.484375 -1.296875 10.015625 -0.828125 C 9.546875 -0.367188 9.019531 0 8.4375 0.28125 C 7.851562 0.570312 7.203125 0.71875 6.484375 0.71875 C 5.972656 0.71875 5.472656 0.632812 4.984375 0.46875 C 4.492188 0.3125 4.0625 0.0625 3.6875 -0.28125 C 3.550781 -0.382812 3.429688 -0.5 3.328125 -0.625 C 3.234375 -0.75 3.160156 -0.863281 3.109375 -0.96875 C 3.085938 -0.988281 3.078125 -1.007812 3.078125 -1.03125 C 3.015625 -1.113281 2.984375 -1.203125 2.984375 -1.296875 C 2.984375 -1.429688 3.03125 -1.550781 3.125 -1.65625 C 3.132812 -1.675781 3.144531 -1.6875 3.15625 -1.6875 C 3.164062 -1.695312 3.171875 -1.707031 3.171875 -1.71875 C 3.273438 -1.800781 3.382812 -1.847656 3.5 -1.859375 L 3.546875 -1.859375 C 3.597656 -1.859375 3.628906 -1.851562 3.640625 -1.84375 C 3.648438 -1.84375 3.65625 -1.835938 3.65625 -1.828125 C 3.664062 -1.828125 3.675781 -1.828125 3.6875 -1.828125 C 3.71875 -1.828125 3.753906 -1.816406 3.796875 -1.796875 C 3.804688 -1.785156 3.816406 -1.78125 3.828125 -1.78125 C 3.910156 -1.726562 3.984375 -1.65625 4.046875 -1.5625 C 4.109375 -1.445312 4.1875 -1.34375 4.28125 -1.25 C 4.351562 -1.164062 4.441406 -1.09375 4.546875 -1.03125 C 4.660156 -0.96875 4.785156 -0.9375 4.921875 -0.9375 C 5.160156 -0.9375 5.398438 -1.007812 5.640625 -1.15625 C 5.890625 -1.300781 6.113281 -1.507812 6.3125 -1.78125 C 6.507812 -2.0625 6.664062 -2.394531 6.78125 -2.78125 C 6.90625 -3.175781 6.96875 -3.613281 6.96875 -4.09375 C 6.96875 -4.4375 6.929688 -4.734375 6.859375 -4.984375 C 6.785156 -5.234375 6.691406 -5.4375 6.578125 -5.59375 C 6.472656 -5.75 6.351562 -5.863281 6.21875 -5.9375 C 6.09375 -6.007812 5.972656 -6.046875 5.859375 -6.046875 C 5.597656 -6.046875 5.332031 -5.910156 5.0625 -5.640625 C 4.789062 -5.367188 4.523438 -5.019531 4.265625 -4.59375 C 4.003906 -4.175781 3.742188 -3.710938 3.484375 -3.203125 C 3.222656 -2.703125 2.960938 -2.210938 2.703125 -1.734375 C 2.679688 -0.148438 2.648438 1.359375 2.609375 2.796875 C 2.578125 4.234375 2.519531 5.566406 2.4375 6.796875 C 2.351562 8.023438 2.238281 9.132812 2.09375 10.125 C 1.945312 11.125 1.742188 11.976562 1.484375 12.6875 C 1.234375 13.394531 0.921875 13.9375 0.546875 14.3125 C 0.179688 14.695312 -0.269531 14.890625 -0.8125 14.890625 C -0.976562 14.890625 -1.164062 14.851562 -1.375 14.78125 C -1.59375 14.71875 -1.789062 14.582031 -1.96875 14.375 C -2.15625 14.164062 -2.3125 13.863281 -2.4375 13.46875 C -2.570312 13.082031 -2.640625 12.5625 -2.640625 11.90625 C -2.640625 11.082031 -2.535156 10.125 -2.328125 9.03125 C -2.117188 7.9375 -1.828125 6.773438 -1.453125 5.546875 C -1.078125 4.316406 -0.628906 3.054688 -0.109375 1.765625 C 0.398438 0.484375 0.96875 -0.769531 1.59375 -2 C 1.59375 -2.332031 1.59375 -2.664062 1.59375 -3 C 1.601562 -3.332031 1.609375 -3.65625 1.609375 -3.96875 C 1.484375 -3.820312 1.332031 -3.75 1.15625 -3.75 C 0.988281 -3.75 0.851562 -3.804688 0.75 -3.921875 C 0.65625 -4.046875 0.609375 -4.175781 0.609375 -4.3125 C 0.609375 -4.375 0.625 -4.445312 0.65625 -4.53125 C 0.894531 -5.0625 1.078125 -5.566406 1.203125 -6.046875 C 1.328125 -6.535156 1.421875 -6.960938 1.484375 -7.328125 C 1.546875 -7.691406 1.582031 -7.984375 1.59375 -8.203125 C 1.601562 -8.421875 1.609375 -8.535156 1.609375 -8.546875 C 1.609375 -8.691406 1.660156 -8.816406 1.765625 -8.921875 C 1.878906 -9.023438 2.015625 -9.078125 2.171875 -9.078125 C 2.316406 -9.078125 2.441406 -9.023438 2.546875 -8.921875 C 2.648438 -8.828125 2.703125 -8.703125 2.703125 -8.546875 L 2.703125 -4.046875 C 2.929688 -4.421875 3.15625 -4.796875 3.375 -5.171875 C 3.601562 -5.546875 3.84375 -5.878906 4.09375 -6.171875 C 4.34375 -6.460938 4.609375 -6.695312 4.890625 -6.875 C 5.179688 -7.0625 5.503906 -7.15625 5.859375 -7.15625 C 6.191406 -7.15625 6.492188 -7.078125 6.765625 -6.921875 C 7.035156 -6.765625 7.269531 -6.546875 7.46875 -6.265625 C 7.664062 -5.992188 7.816406 -5.671875 7.921875 -5.296875 C 8.023438 -4.921875 8.078125 -4.519531 8.078125 -4.09375 Z M 1.5625 0.609375 C 1.082031 1.691406 0.648438 2.773438 0.265625 3.859375 C -0.117188 4.941406 -0.441406 5.984375 -0.703125 6.984375 C -0.972656 7.992188 -1.179688 8.9375 -1.328125 9.8125 C -1.472656 10.695312 -1.546875 11.46875 -1.546875 12.125 C -1.546875 12.289062 -1.535156 12.472656 -1.515625 12.671875 C -1.503906 12.867188 -1.46875 13.050781 -1.40625 13.21875 C -1.34375 13.382812 -1.257812 13.519531 -1.15625 13.625 C -1.050781 13.738281 -0.910156 13.796875 -0.734375 13.796875 C -0.410156 13.796875 -0.132812 13.59375 0.09375 13.1875 C 0.332031 12.78125 0.53125 12.234375 0.6875 11.546875 C 0.851562 10.859375 0.988281 10.066406 1.09375 9.171875 C 1.207031 8.285156 1.296875 7.351562 1.359375 6.375 C 1.421875 5.394531 1.460938 4.410156 1.484375 3.421875 C 1.515625 2.429688 1.539062 1.492188 1.5625 0.609375 Z M 1.5625 0.609375 "/></g></g><g transform="translate(165.375681, 294.295497)"><g><path d="M 11.875 -4.09375 C 11.84375 -4.007812 11.765625 -3.84375 11.640625 -3.59375 C 11.515625 -3.34375 11.359375 -3.054688 11.171875 -2.734375 C 10.984375 -2.410156 10.757812 -2.070312 10.5 -1.71875 C 10.25 -1.375 9.96875 -1.054688 9.65625 -0.765625 C 9.34375 -0.472656 9.003906 -0.226562 8.640625 -0.03125 C 8.273438 0.15625 7.894531 0.25 7.5 0.25 C 6.9375 0.25 6.460938 0.0703125 6.078125 -0.28125 C 5.691406 -0.644531 5.410156 -1.101562 5.234375 -1.65625 C 4.898438 -1.101562 4.503906 -0.660156 4.046875 -0.328125 C 3.585938 -0.00390625 3.128906 0.15625 2.671875 0.15625 C 2.304688 0.15625 1.976562 0.09375 1.6875 -0.03125 C 1.394531 -0.164062 1.144531 -0.351562 0.9375 -0.59375 C 0.726562 -0.832031 0.566406 -1.113281 0.453125 -1.4375 C 0.347656 -1.757812 0.296875 -2.109375 0.296875 -2.484375 C 0.296875 -3.253906 0.421875 -3.925781 0.671875 -4.5 C 0.929688 -5.082031 1.257812 -5.566406 1.65625 -5.953125 C 2.0625 -6.347656 2.503906 -6.644531 2.984375 -6.84375 C 3.472656 -7.039062 3.941406 -7.140625 4.390625 -7.140625 C 4.691406 -7.140625 4.96875 -7.097656 5.21875 -7.015625 C 5.476562 -6.929688 5.695312 -6.835938 5.875 -6.734375 C 6.0625 -6.640625 6.203125 -6.550781 6.296875 -6.46875 C 6.398438 -6.382812 6.453125 -6.335938 6.453125 -6.328125 C 6.566406 -6.203125 6.625 -6.070312 6.625 -5.9375 C 6.625 -5.789062 6.566406 -5.660156 6.453125 -5.546875 C 6.347656 -5.429688 6.222656 -5.375 6.078125 -5.375 C 5.921875 -5.375 5.789062 -5.425781 5.6875 -5.53125 C 5.664062 -5.550781 5.617188 -5.585938 5.546875 -5.640625 C 5.484375 -5.703125 5.390625 -5.757812 5.265625 -5.8125 C 5.148438 -5.875 5.007812 -5.925781 4.84375 -5.96875 C 4.6875 -6.007812 4.507812 -6.03125 4.3125 -6.03125 C 4.007812 -6.03125 3.6875 -5.960938 3.34375 -5.828125 C 3 -5.691406 2.6875 -5.476562 2.40625 -5.1875 C 2.125 -4.90625 1.882812 -4.546875 1.6875 -4.109375 C 1.5 -3.671875 1.40625 -3.15625 1.40625 -2.5625 C 1.40625 -2.375 1.425781 -2.1875 1.46875 -2 C 1.507812 -1.8125 1.578125 -1.640625 1.671875 -1.484375 C 1.765625 -1.328125 1.894531 -1.195312 2.0625 -1.09375 C 2.226562 -1 2.4375 -0.953125 2.6875 -0.953125 C 2.851562 -0.953125 3.050781 -1.007812 3.28125 -1.125 C 3.519531 -1.238281 3.742188 -1.414062 3.953125 -1.65625 C 4.160156 -1.90625 4.347656 -2.21875 4.515625 -2.59375 C 4.691406 -2.96875 4.8125 -3.40625 4.875 -3.90625 C 4.894531 -4.039062 4.957031 -4.15625 5.0625 -4.25 C 5.175781 -4.34375 5.304688 -4.390625 5.453125 -4.390625 C 5.585938 -4.390625 5.707031 -4.335938 5.8125 -4.234375 C 5.914062 -4.128906 5.972656 -4.007812 5.984375 -3.875 C 5.984375 -3.6875 6 -3.421875 6.03125 -3.078125 C 6.0625 -2.742188 6.128906 -2.410156 6.234375 -2.078125 C 6.335938 -1.742188 6.488281 -1.453125 6.6875 -1.203125 C 6.894531 -0.960938 7.179688 -0.84375 7.546875 -0.84375 C 7.773438 -0.84375 8.003906 -0.90625 8.234375 -1.03125 C 8.460938 -1.164062 8.6875 -1.335938 8.90625 -1.546875 C 9.132812 -1.753906 9.347656 -1.992188 9.546875 -2.265625 C 9.742188 -2.535156 9.925781 -2.804688 10.09375 -3.078125 C 10.257812 -3.347656 10.40625 -3.609375 10.53125 -3.859375 C 10.65625 -4.117188 10.765625 -4.34375 10.859375 -4.53125 C 10.898438 -4.632812 10.96875 -4.710938 11.0625 -4.765625 C 11.15625 -4.828125 11.257812 -4.859375 11.375 -4.859375 C 11.53125 -4.859375 11.660156 -4.796875 11.765625 -4.671875 C 11.867188 -4.554688 11.921875 -4.429688 11.921875 -4.296875 C 11.921875 -4.222656 11.90625 -4.15625 11.875 -4.09375 Z M 11.875 -4.09375 "/></g></g><g transform="translate(175.68818, 294.295497)"><g><path d="M 12.421875 -14.65625 C 12.421875 -14.5 12.363281 -14.375 12.25 -14.28125 C 12.144531 -14.195312 12.015625 -14.15625 11.859375 -14.15625 L 4.4375 -14.15625 L 4.4375 -13.984375 C 4.4375 -13.390625 4.390625 -12.753906 4.296875 -12.078125 C 4.210938 -11.410156 4.09375 -10.738281 3.9375 -10.0625 C 3.789062 -9.394531 3.625 -8.742188 3.4375 -8.109375 C 3.25 -7.472656 3.050781 -6.882812 2.84375 -6.34375 C 2.644531 -5.8125 2.445312 -5.347656 2.25 -4.953125 C 2.0625 -4.554688 1.890625 -4.265625 1.734375 -4.078125 C 1.859375 -3.628906 2.007812 -3.207031 2.1875 -2.8125 C 2.363281 -2.425781 2.5625 -2.085938 2.78125 -1.796875 C 3 -1.515625 3.234375 -1.289062 3.484375 -1.125 C 3.742188 -0.957031 4.019531 -0.875 4.3125 -0.875 C 4.644531 -0.875 4.976562 -1.019531 5.3125 -1.3125 C 5.65625 -1.601562 5.96875 -1.945312 6.25 -2.34375 C 6.539062 -2.738281 6.796875 -3.132812 7.015625 -3.53125 C 7.242188 -3.9375 7.40625 -4.265625 7.5 -4.515625 C 7.59375 -4.742188 7.765625 -4.859375 8.015625 -4.859375 C 8.179688 -4.859375 8.3125 -4.800781 8.40625 -4.6875 C 8.507812 -4.570312 8.5625 -4.445312 8.5625 -4.3125 C 8.5625 -4.238281 8.550781 -4.171875 8.53125 -4.109375 C 8.5 -4.035156 8.425781 -3.875 8.3125 -3.625 C 8.195312 -3.382812 8.050781 -3.101562 7.875 -2.78125 C 7.695312 -2.457031 7.488281 -2.117188 7.25 -1.765625 C 7.007812 -1.410156 6.738281 -1.085938 6.4375 -0.796875 C 6.132812 -0.503906 5.8125 -0.257812 5.46875 -0.0625 C 5.132812 0.132812 4.773438 0.234375 4.390625 0.234375 C 3.722656 0.234375 3.117188 0.015625 2.578125 -0.421875 C 2.035156 -0.859375 1.578125 -1.472656 1.203125 -2.265625 C 0.828125 -3.054688 0.539062 -3.992188 0.34375 -5.078125 C 0.15625 -6.160156 0.0625 -7.347656 0.0625 -8.640625 C 0.0625 -8.960938 0.0664062 -9.34375 0.078125 -9.78125 C 0.0859375 -10.21875 0.101562 -10.675781 0.125 -11.15625 C 0.15625 -11.632812 0.203125 -12.128906 0.265625 -12.640625 C 0.328125 -13.160156 0.40625 -13.664062 0.5 -14.15625 L -4.765625 -14.15625 C -4.921875 -14.15625 -5.050781 -14.195312 -5.15625 -14.28125 C -5.257812 -14.375 -5.3125 -14.5 -5.3125 -14.65625 C -5.3125 -14.8125 -5.257812 -14.9375 -5.15625 -15.03125 C -5.050781 -15.125 -4.921875 -15.171875 -4.765625 -15.171875 L 0.75 -15.171875 C 0.84375 -15.523438 0.957031 -15.847656 1.09375 -16.140625 C 1.226562 -16.429688 1.378906 -16.6875 1.546875 -16.90625 C 1.710938 -17.125 1.898438 -17.289062 2.109375 -17.40625 C 2.328125 -17.53125 2.5625 -17.59375 2.8125 -17.59375 C 3.050781 -17.59375 3.257812 -17.53125 3.4375 -17.40625 C 3.625 -17.289062 3.78125 -17.125 3.90625 -16.90625 C 4.039062 -16.6875 4.144531 -16.429688 4.21875 -16.140625 C 4.289062 -15.847656 4.34375 -15.523438 4.375 -15.171875 L 11.859375 -15.171875 C 12.015625 -15.171875 12.144531 -15.125 12.25 -15.03125 C 12.363281 -14.9375 12.421875 -14.8125 12.421875 -14.65625 Z M 1.390625 -5.53125 C 1.679688 -6.175781 1.945312 -6.875 2.1875 -7.625 C 2.425781 -8.375 2.628906 -9.128906 2.796875 -9.890625 C 2.972656 -10.648438 3.109375 -11.394531 3.203125 -12.125 C 3.296875 -12.863281 3.34375 -13.539062 3.34375 -14.15625 L 1.609375 -14.15625 C 1.472656 -13.550781 1.363281 -12.800781 1.28125 -11.90625 C 1.195312 -11.007812 1.15625 -9.921875 1.15625 -8.640625 C 1.15625 -7.929688 1.175781 -7.332031 1.21875 -6.84375 C 1.257812 -6.363281 1.316406 -5.925781 1.390625 -5.53125 Z M 2.75 -16.5 C 2.664062 -16.5 2.539062 -16.398438 2.375 -16.203125 C 2.207031 -16.015625 2.039062 -15.671875 1.875 -15.171875 L 3.28125 -15.171875 C 3.226562 -15.585938 3.15625 -15.910156 3.0625 -16.140625 C 2.976562 -16.378906 2.875 -16.5 2.75 -16.5 Z M 1.625 -4.484375 L 1.625 -4.46875 Z M 1.625 -4.484375 "/></g></g><g transform="translate(182.690133, 294.295497)"><g><path d="M 2.9375 -11.5 C 2.9375 -11.125 2.804688 -10.804688 2.546875 -10.546875 C 2.296875 -10.296875 1.984375 -10.171875 1.609375 -10.171875 C 1.242188 -10.171875 0.929688 -10.296875 0.671875 -10.546875 C 0.410156 -10.804688 0.28125 -11.125 0.28125 -11.5 C 0.28125 -11.6875 0.3125 -11.859375 0.375 -12.015625 C 0.445312 -12.179688 0.539062 -12.320312 0.65625 -12.4375 C 0.78125 -12.5625 0.921875 -12.65625 1.078125 -12.71875 C 1.242188 -12.789062 1.421875 -12.828125 1.609375 -12.828125 C 1.796875 -12.828125 1.96875 -12.789062 2.125 -12.71875 C 2.289062 -12.65625 2.429688 -12.5625 2.546875 -12.4375 C 2.671875 -12.320312 2.765625 -12.179688 2.828125 -12.015625 C 2.898438 -11.859375 2.9375 -11.6875 2.9375 -11.5 Z M 0.578125 -2.921875 C 0.578125 -4.328125 0.660156 -5.726562 0.828125 -7.125 C 0.847656 -7.257812 0.910156 -7.375 1.015625 -7.46875 C 1.117188 -7.570312 1.253906 -7.625 1.421875 -7.625 C 1.566406 -7.625 1.6875 -7.566406 1.78125 -7.453125 C 1.882812 -7.347656 1.9375 -7.222656 1.9375 -7.078125 C 1.9375 -7.015625 1.921875 -6.835938 1.890625 -6.546875 C 1.867188 -6.253906 1.84375 -5.90625 1.8125 -5.5 C 1.78125 -5.09375 1.75 -4.660156 1.71875 -4.203125 C 1.695312 -3.753906 1.6875 -3.335938 1.6875 -2.953125 C 1.6875 -2.441406 1.738281 -2.023438 1.84375 -1.703125 C 1.945312 -1.390625 2.078125 -1.144531 2.234375 -0.96875 C 2.390625 -0.789062 2.554688 -0.671875 2.734375 -0.609375 C 2.921875 -0.554688 3.097656 -0.53125 3.265625 -0.53125 C 3.535156 -0.53125 3.816406 -0.625 4.109375 -0.8125 C 4.410156 -1.007812 4.710938 -1.285156 5.015625 -1.640625 C 5.328125 -1.992188 5.640625 -2.414062 5.953125 -2.90625 C 6.265625 -3.394531 6.570312 -3.945312 6.875 -4.5625 C 6.914062 -4.65625 6.976562 -4.726562 7.0625 -4.78125 C 7.15625 -4.832031 7.257812 -4.859375 7.375 -4.859375 C 7.53125 -4.859375 7.65625 -4.800781 7.75 -4.6875 C 7.851562 -4.570312 7.90625 -4.445312 7.90625 -4.3125 C 7.90625 -4.207031 7.890625 -4.125 7.859375 -4.0625 C 7.734375 -3.832031 7.582031 -3.554688 7.40625 -3.234375 C 7.238281 -2.910156 7.039062 -2.578125 6.8125 -2.234375 C 6.582031 -1.898438 6.332031 -1.5625 6.0625 -1.21875 C 5.800781 -0.882812 5.519531 -0.582031 5.21875 -0.3125 C 4.914062 -0.0390625 4.597656 0.175781 4.265625 0.34375 C 3.929688 0.507812 3.59375 0.59375 3.25 0.59375 C 2.8125 0.59375 2.425781 0.5 2.09375 0.3125 C 1.757812 0.125 1.476562 -0.125 1.25 -0.4375 C 1.019531 -0.75 0.847656 -1.117188 0.734375 -1.546875 C 0.628906 -1.972656 0.578125 -2.429688 0.578125 -2.921875 Z M 2.125 -11.5 C 2.125 -11.632812 2.070312 -11.753906 1.96875 -11.859375 C 1.863281 -11.960938 1.742188 -12.015625 1.609375 -12.015625 C 1.472656 -12.015625 1.351562 -11.960938 1.25 -11.859375 C 1.15625 -11.753906 1.109375 -11.632812 1.109375 -11.5 C 1.109375 -11.363281 1.15625 -11.242188 1.25 -11.140625 C 1.351562 -11.046875 1.472656 -11 1.609375 -11 C 1.742188 -11 1.863281 -11.046875 1.96875 -11.140625 C 2.070312 -11.242188 2.125 -11.363281 2.125 -11.5 Z M 2.125 -11.5 "/></g></g><g transform="translate(188.988961, 294.295497)"><g><path d="M 2.1875 -5.421875 C 2.125 -5.265625 2.050781 -5.085938 1.96875 -4.890625 C 1.882812 -4.691406 1.789062 -4.488281 1.6875 -4.28125 C 1.59375 -4.113281 1.5 -3.984375 1.40625 -3.890625 C 1.320312 -3.796875 1.207031 -3.75 1.0625 -3.75 C 0.894531 -3.75 0.757812 -3.800781 0.65625 -3.90625 C 0.5625 -4.007812 0.515625 -4.128906 0.515625 -4.265625 C 0.515625 -4.316406 0.519531 -4.359375 0.53125 -4.390625 C 0.539062 -4.421875 0.5625 -4.476562 0.59375 -4.5625 C 0.851562 -5.039062 1.039062 -5.460938 1.15625 -5.828125 C 1.28125 -6.203125 1.382812 -6.585938 1.46875 -6.984375 C 1.394531 -7.210938 1.34375 -7.40625 1.3125 -7.5625 C 1.289062 -7.71875 1.28125 -7.878906 1.28125 -8.046875 C 1.28125 -8.367188 1.347656 -8.628906 1.484375 -8.828125 C 1.617188 -9.023438 1.804688 -9.125 2.046875 -9.125 C 2.273438 -9.125 2.453125 -9.023438 2.578125 -8.828125 C 2.710938 -8.640625 2.78125 -8.398438 2.78125 -8.109375 C 2.78125 -7.953125 2.765625 -7.796875 2.734375 -7.640625 C 2.710938 -7.484375 2.675781 -7.289062 2.625 -7.0625 C 2.84375 -6.5 3.066406 -6.003906 3.296875 -5.578125 C 3.523438 -5.148438 3.722656 -4.757812 3.890625 -4.40625 C 4.066406 -4.050781 4.210938 -3.71875 4.328125 -3.40625 C 4.441406 -3.09375 4.5 -2.78125 4.5 -2.46875 C 4.5 -2.050781 4.414062 -1.65625 4.25 -1.28125 C 4.082031 -0.914062 3.804688 -0.609375 3.421875 -0.359375 C 3.472656 -0.347656 3.519531 -0.34375 3.5625 -0.34375 C 3.613281 -0.34375 3.664062 -0.34375 3.71875 -0.34375 C 4.28125 -0.34375 4.796875 -0.46875 5.265625 -0.71875 C 5.734375 -0.96875 6.15625 -1.296875 6.53125 -1.703125 C 6.90625 -2.109375 7.238281 -2.554688 7.53125 -3.046875 C 7.820312 -3.546875 8.078125 -4.039062 8.296875 -4.53125 C 8.390625 -4.75 8.523438 -4.859375 8.703125 -4.859375 C 8.867188 -4.859375 9 -4.800781 9.09375 -4.6875 C 9.1875 -4.570312 9.234375 -4.445312 9.234375 -4.3125 C 9.234375 -4.226562 9.21875 -4.15625 9.1875 -4.09375 C 9.082031 -3.820312 8.941406 -3.519531 8.765625 -3.1875 C 8.597656 -2.851562 8.394531 -2.503906 8.15625 -2.140625 C 7.914062 -1.785156 7.640625 -1.4375 7.328125 -1.09375 C 7.015625 -0.757812 6.664062 -0.457031 6.28125 -0.1875 C 5.894531 0.0820312 5.472656 0.296875 5.015625 0.453125 C 4.554688 0.617188 4.050781 0.703125 3.5 0.703125 C 2.84375 0.703125 2.234375 0.585938 1.671875 0.359375 C 1.109375 0.128906 0.65625 -0.25 0.3125 -0.78125 C 0.25 -0.863281 0.21875 -0.957031 0.21875 -1.0625 C 0.21875 -1.207031 0.273438 -1.332031 0.390625 -1.4375 C 0.503906 -1.550781 0.632812 -1.609375 0.78125 -1.609375 C 0.9375 -1.609375 1.066406 -1.554688 1.171875 -1.453125 C 1.179688 -1.429688 1.210938 -1.398438 1.265625 -1.359375 C 1.328125 -1.316406 1.398438 -1.265625 1.484375 -1.203125 C 1.566406 -1.148438 1.664062 -1.101562 1.78125 -1.0625 C 1.894531 -1.03125 2.007812 -1.015625 2.125 -1.015625 C 2.351562 -1.015625 2.546875 -1.0625 2.703125 -1.15625 C 2.867188 -1.25 3 -1.367188 3.09375 -1.515625 C 3.195312 -1.660156 3.269531 -1.8125 3.3125 -1.96875 C 3.363281 -2.132812 3.390625 -2.273438 3.390625 -2.390625 C 3.390625 -2.628906 3.347656 -2.867188 3.265625 -3.109375 C 3.191406 -3.359375 3.09375 -3.601562 2.96875 -3.84375 C 2.84375 -4.09375 2.707031 -4.347656 2.5625 -4.609375 C 2.425781 -4.867188 2.300781 -5.140625 2.1875 -5.421875 Z M 2.1875 -5.421875 "/></g></g><g transform="translate(196.606148, 294.295497)"><g><path d="M 2.1875 -5.421875 C 2.125 -5.265625 2.050781 -5.085938 1.96875 -4.890625 C 1.882812 -4.691406 1.789062 -4.488281 1.6875 -4.28125 C 1.59375 -4.113281 1.5 -3.984375 1.40625 -3.890625 C 1.320312 -3.796875 1.207031 -3.75 1.0625 -3.75 C 0.894531 -3.75 0.757812 -3.800781 0.65625 -3.90625 C 0.5625 -4.007812 0.515625 -4.128906 0.515625 -4.265625 C 0.515625 -4.316406 0.519531 -4.359375 0.53125 -4.390625 C 0.539062 -4.421875 0.5625 -4.476562 0.59375 -4.5625 C 0.851562 -5.039062 1.039062 -5.460938 1.15625 -5.828125 C 1.28125 -6.203125 1.382812 -6.585938 1.46875 -6.984375 C 1.394531 -7.210938 1.34375 -7.40625 1.3125 -7.5625 C 1.289062 -7.71875 1.28125 -7.878906 1.28125 -8.046875 C 1.28125 -8.367188 1.347656 -8.628906 1.484375 -8.828125 C 1.617188 -9.023438 1.804688 -9.125 2.046875 -9.125 C 2.273438 -9.125 2.453125 -9.023438 2.578125 -8.828125 C 2.710938 -8.640625 2.78125 -8.398438 2.78125 -8.109375 C 2.78125 -7.953125 2.765625 -7.796875 2.734375 -7.640625 C 2.710938 -7.484375 2.675781 -7.289062 2.625 -7.0625 C 2.84375 -6.5 3.066406 -6.003906 3.296875 -5.578125 C 3.523438 -5.148438 3.722656 -4.757812 3.890625 -4.40625 C 4.066406 -4.050781 4.210938 -3.71875 4.328125 -3.40625 C 4.441406 -3.09375 4.5 -2.78125 4.5 -2.46875 C 4.5 -2.050781 4.414062 -1.65625 4.25 -1.28125 C 4.082031 -0.914062 3.804688 -0.609375 3.421875 -0.359375 C 3.472656 -0.347656 3.519531 -0.34375 3.5625 -0.34375 C 3.613281 -0.34375 3.664062 -0.34375 3.71875 -0.34375 C 4.28125 -0.34375 4.796875 -0.46875 5.265625 -0.71875 C 5.734375 -0.96875 6.15625 -1.296875 6.53125 -1.703125 C 6.90625 -2.109375 7.238281 -2.554688 7.53125 -3.046875 C 7.820312 -3.546875 8.078125 -4.039062 8.296875 -4.53125 C 8.390625 -4.75 8.523438 -4.859375 8.703125 -4.859375 C 8.867188 -4.859375 9 -4.800781 9.09375 -4.6875 C 9.1875 -4.570312 9.234375 -4.445312 9.234375 -4.3125 C 9.234375 -4.226562 9.21875 -4.15625 9.1875 -4.09375 C 9.082031 -3.820312 8.941406 -3.519531 8.765625 -3.1875 C 8.597656 -2.851562 8.394531 -2.503906 8.15625 -2.140625 C 7.914062 -1.785156 7.640625 -1.4375 7.328125 -1.09375 C 7.015625 -0.757812 6.664062 -0.457031 6.28125 -0.1875 C 5.894531 0.0820312 5.472656 0.296875 5.015625 0.453125 C 4.554688 0.617188 4.050781 0.703125 3.5 0.703125 C 2.84375 0.703125 2.234375 0.585938 1.671875 0.359375 C 1.109375 0.128906 0.65625 -0.25 0.3125 -0.78125 C 0.25 -0.863281 0.21875 -0.957031 0.21875 -1.0625 C 0.21875 -1.207031 0.273438 -1.332031 0.390625 -1.4375 C 0.503906 -1.550781 0.632812 -1.609375 0.78125 -1.609375 C 0.9375 -1.609375 1.066406 -1.554688 1.171875 -1.453125 C 1.179688 -1.429688 1.210938 -1.398438 1.265625 -1.359375 C 1.328125 -1.316406 1.398438 -1.265625 1.484375 -1.203125 C 1.566406 -1.148438 1.664062 -1.101562 1.78125 -1.0625 C 1.894531 -1.03125 2.007812 -1.015625 2.125 -1.015625 C 2.351562 -1.015625 2.546875 -1.0625 2.703125 -1.15625 C 2.867188 -1.25 3 -1.367188 3.09375 -1.515625 C 3.195312 -1.660156 3.269531 -1.8125 3.3125 -1.96875 C 3.363281 -2.132812 3.390625 -2.273438 3.390625 -2.390625 C 3.390625 -2.628906 3.347656 -2.867188 3.265625 -3.109375 C 3.191406 -3.359375 3.09375 -3.601562 2.96875 -3.84375 C 2.84375 -4.09375 2.707031 -4.347656 2.5625 -4.609375 C 2.425781 -4.867188 2.300781 -5.140625 2.1875 -5.421875 Z M 2.1875 -5.421875 "/></g></g><g transform="translate(204.223335, 294.295497)"><g><path d="M 2.3125 -1.609375 C 2.519531 -1.328125 2.785156 -1.097656 3.109375 -0.921875 C 3.429688 -0.753906 3.828125 -0.671875 4.296875 -0.671875 C 4.773438 -0.671875 5.207031 -0.785156 5.59375 -1.015625 C 5.988281 -1.242188 6.347656 -1.539062 6.671875 -1.90625 C 6.992188 -2.28125 7.28125 -2.695312 7.53125 -3.15625 C 7.78125 -3.625 8.007812 -4.085938 8.21875 -4.546875 C 8.269531 -4.648438 8.335938 -4.726562 8.421875 -4.78125 C 8.515625 -4.832031 8.613281 -4.859375 8.71875 -4.859375 C 8.882812 -4.859375 9.015625 -4.800781 9.109375 -4.6875 C 9.210938 -4.570312 9.265625 -4.445312 9.265625 -4.3125 C 9.265625 -4.257812 9.257812 -4.210938 9.25 -4.171875 C 9.25 -4.140625 9.238281 -4.109375 9.21875 -4.078125 C 8.539062 -2.585938 7.800781 -1.46875 7 -0.71875 C 6.207031 0.03125 5.3125 0.414062 4.3125 0.4375 C 3.664062 0.4375 3.109375 0.3125 2.640625 0.0625 C 2.171875 -0.1875 1.785156 -0.507812 1.484375 -0.90625 C 1.179688 -1.300781 0.957031 -1.742188 0.8125 -2.234375 C 0.664062 -2.734375 0.59375 -3.234375 0.59375 -3.734375 C 0.59375 -4.234375 0.648438 -4.691406 0.765625 -5.109375 C 0.890625 -5.535156 1.066406 -5.90625 1.296875 -6.21875 C 1.523438 -6.53125 1.796875 -6.769531 2.109375 -6.9375 C 2.429688 -7.113281 2.785156 -7.203125 3.171875 -7.203125 C 3.390625 -7.203125 3.609375 -7.15625 3.828125 -7.0625 C 4.046875 -6.96875 4.242188 -6.835938 4.421875 -6.671875 C 4.597656 -6.503906 4.738281 -6.296875 4.84375 -6.046875 C 4.957031 -5.804688 5.015625 -5.53125 5.015625 -5.21875 C 5.015625 -4.8125 4.941406 -4.429688 4.796875 -4.078125 C 4.660156 -3.734375 4.472656 -3.410156 4.234375 -3.109375 C 3.992188 -2.804688 3.707031 -2.523438 3.375 -2.265625 C 3.050781 -2.015625 2.695312 -1.796875 2.3125 -1.609375 Z M 1.875 -2.5625 C 2.175781 -2.6875 2.453125 -2.847656 2.703125 -3.046875 C 2.953125 -3.242188 3.164062 -3.457031 3.34375 -3.6875 C 3.519531 -3.925781 3.65625 -4.171875 3.75 -4.421875 C 3.84375 -4.679688 3.890625 -4.945312 3.890625 -5.21875 C 3.890625 -5.507812 3.816406 -5.726562 3.671875 -5.875 C 3.523438 -6.03125 3.359375 -6.109375 3.171875 -6.109375 C 2.898438 -6.109375 2.671875 -6.035156 2.484375 -5.890625 C 2.304688 -5.742188 2.15625 -5.550781 2.03125 -5.3125 C 1.914062 -5.082031 1.832031 -4.820312 1.78125 -4.53125 C 1.726562 -4.25 1.703125 -3.960938 1.703125 -3.671875 C 1.703125 -3.492188 1.71875 -3.304688 1.75 -3.109375 C 1.78125 -2.921875 1.820312 -2.738281 1.875 -2.5625 Z M 1.875 -2.5625 "/></g></g><g transform="translate(211.884467, 294.295497)"><g><path d="M 2.09375 -6.015625 C 2.050781 -5.753906 2 -5.507812 1.9375 -5.28125 C 1.882812 -5.050781 1.832031 -4.847656 1.78125 -4.671875 C 1.726562 -4.503906 1.679688 -4.367188 1.640625 -4.265625 C 1.597656 -4.160156 1.570312 -4.101562 1.5625 -4.09375 C 1.46875 -3.863281 1.300781 -3.75 1.0625 -3.75 C 0.914062 -3.75 0.785156 -3.800781 0.671875 -3.90625 C 0.554688 -4.007812 0.5 -4.140625 0.5 -4.296875 C 0.5 -4.347656 0.507812 -4.390625 0.53125 -4.421875 C 0.550781 -4.453125 0.578125 -4.507812 0.609375 -4.59375 C 0.648438 -4.6875 0.695312 -4.832031 0.75 -5.03125 C 0.8125 -5.238281 0.890625 -5.554688 0.984375 -5.984375 C 0.816406 -5.984375 0.644531 -5.988281 0.46875 -6 C 0.289062 -6.007812 0.128906 -6.046875 -0.015625 -6.109375 C -0.171875 -6.171875 -0.296875 -6.265625 -0.390625 -6.390625 C -0.492188 -6.515625 -0.546875 -6.691406 -0.546875 -6.921875 C -0.546875 -7.078125 -0.5 -7.296875 -0.40625 -7.578125 C -0.3125 -7.867188 -0.1875 -8.148438 -0.03125 -8.421875 C 0.125 -8.691406 0.300781 -8.925781 0.5 -9.125 C 0.695312 -9.332031 0.890625 -9.4375 1.078125 -9.4375 C 1.304688 -9.4375 1.488281 -9.351562 1.625 -9.1875 C 1.769531 -9.019531 1.878906 -8.816406 1.953125 -8.578125 C 2.035156 -8.335938 2.09375 -8.082031 2.125 -7.8125 C 2.164062 -7.550781 2.1875 -7.328125 2.1875 -7.140625 C 2.351562 -7.140625 2.515625 -7.140625 2.671875 -7.140625 C 2.835938 -7.148438 2.992188 -7.15625 3.140625 -7.15625 C 3.691406 -7.15625 4.113281 -7.03125 4.40625 -6.78125 C 4.695312 -6.539062 4.84375 -6.140625 4.84375 -5.578125 C 4.84375 -5.359375 4.828125 -5.125 4.796875 -4.875 C 4.773438 -4.632812 4.742188 -4.382812 4.703125 -4.125 C 4.660156 -3.863281 4.625 -3.601562 4.59375 -3.34375 C 4.570312 -3.09375 4.5625 -2.847656 4.5625 -2.609375 C 4.5625 -2.253906 4.609375 -1.960938 4.703125 -1.734375 C 4.796875 -1.503906 4.914062 -1.320312 5.0625 -1.1875 C 5.207031 -1.050781 5.363281 -0.957031 5.53125 -0.90625 C 5.695312 -0.851562 5.847656 -0.828125 5.984375 -0.828125 C 6.410156 -0.828125 6.804688 -0.960938 7.171875 -1.234375 C 7.546875 -1.503906 7.890625 -1.832031 8.203125 -2.21875 C 8.515625 -2.601562 8.796875 -3.007812 9.046875 -3.4375 C 9.296875 -3.875 9.503906 -4.253906 9.671875 -4.578125 C 9.710938 -4.660156 9.773438 -4.722656 9.859375 -4.765625 C 9.953125 -4.816406 10.050781 -4.84375 10.15625 -4.84375 C 10.332031 -4.84375 10.46875 -4.785156 10.5625 -4.671875 C 10.65625 -4.566406 10.703125 -4.445312 10.703125 -4.3125 C 10.703125 -4.207031 10.6875 -4.117188 10.65625 -4.046875 C 10.425781 -3.640625 10.160156 -3.1875 9.859375 -2.6875 C 9.566406 -2.1875 9.226562 -1.710938 8.84375 -1.265625 C 8.46875 -0.828125 8.039062 -0.457031 7.5625 -0.15625 C 7.09375 0.144531 6.570312 0.296875 6 0.296875 C 5.65625 0.296875 5.328125 0.226562 5.015625 0.09375 C 4.703125 -0.0390625 4.429688 -0.226562 4.203125 -0.46875 C 3.972656 -0.71875 3.785156 -1.023438 3.640625 -1.390625 C 3.503906 -1.765625 3.4375 -2.179688 3.4375 -2.640625 C 3.4375 -3.128906 3.484375 -3.613281 3.578125 -4.09375 C 3.679688 -4.570312 3.734375 -5.035156 3.734375 -5.484375 C 3.734375 -5.660156 3.691406 -5.796875 3.609375 -5.890625 C 3.523438 -5.984375 3.34375 -6.03125 3.0625 -6.03125 C 2.925781 -6.03125 2.773438 -6.03125 2.609375 -6.03125 C 2.453125 -6.03125 2.28125 -6.023438 2.09375 -6.015625 Z M 1.109375 -7.109375 C 1.109375 -7.171875 1.101562 -7.257812 1.09375 -7.375 C 1.09375 -7.488281 1.085938 -7.597656 1.078125 -7.703125 C 1.066406 -7.804688 1.046875 -7.894531 1.015625 -7.96875 C 0.992188 -8.050781 0.96875 -8.09375 0.9375 -8.09375 C 0.90625 -8.09375 0.867188 -8.054688 0.828125 -7.984375 C 0.785156 -7.910156 0.738281 -7.820312 0.6875 -7.71875 C 0.632812 -7.625 0.585938 -7.515625 0.546875 -7.390625 C 0.515625 -7.273438 0.488281 -7.179688 0.46875 -7.109375 Z M 1.109375 -7.109375 "/></g></g><g transform="translate(220.981146, 294.295497)"><g><path d="M 2.9375 -11.5 C 2.9375 -11.125 2.804688 -10.804688 2.546875 -10.546875 C 2.296875 -10.296875 1.984375 -10.171875 1.609375 -10.171875 C 1.242188 -10.171875 0.929688 -10.296875 0.671875 -10.546875 C 0.410156 -10.804688 0.28125 -11.125 0.28125 -11.5 C 0.28125 -11.6875 0.3125 -11.859375 0.375 -12.015625 C 0.445312 -12.179688 0.539062 -12.320312 0.65625 -12.4375 C 0.78125 -12.5625 0.921875 -12.65625 1.078125 -12.71875 C 1.242188 -12.789062 1.421875 -12.828125 1.609375 -12.828125 C 1.796875 -12.828125 1.96875 -12.789062 2.125 -12.71875 C 2.289062 -12.65625 2.429688 -12.5625 2.546875 -12.4375 C 2.671875 -12.320312 2.765625 -12.179688 2.828125 -12.015625 C 2.898438 -11.859375 2.9375 -11.6875 2.9375 -11.5 Z M 0.578125 -2.921875 C 0.578125 -4.328125 0.660156 -5.726562 0.828125 -7.125 C 0.847656 -7.257812 0.910156 -7.375 1.015625 -7.46875 C 1.117188 -7.570312 1.253906 -7.625 1.421875 -7.625 C 1.566406 -7.625 1.6875 -7.566406 1.78125 -7.453125 C 1.882812 -7.347656 1.9375 -7.222656 1.9375 -7.078125 C 1.9375 -7.015625 1.921875 -6.835938 1.890625 -6.546875 C 1.867188 -6.253906 1.84375 -5.90625 1.8125 -5.5 C 1.78125 -5.09375 1.75 -4.660156 1.71875 -4.203125 C 1.695312 -3.753906 1.6875 -3.335938 1.6875 -2.953125 C 1.6875 -2.441406 1.738281 -2.023438 1.84375 -1.703125 C 1.945312 -1.390625 2.078125 -1.144531 2.234375 -0.96875 C 2.390625 -0.789062 2.554688 -0.671875 2.734375 -0.609375 C 2.921875 -0.554688 3.097656 -0.53125 3.265625 -0.53125 C 3.535156 -0.53125 3.816406 -0.625 4.109375 -0.8125 C 4.410156 -1.007812 4.710938 -1.285156 5.015625 -1.640625 C 5.328125 -1.992188 5.640625 -2.414062 5.953125 -2.90625 C 6.265625 -3.394531 6.570312 -3.945312 6.875 -4.5625 C 6.914062 -4.65625 6.976562 -4.726562 7.0625 -4.78125 C 7.15625 -4.832031 7.257812 -4.859375 7.375 -4.859375 C 7.53125 -4.859375 7.65625 -4.800781 7.75 -4.6875 C 7.851562 -4.570312 7.90625 -4.445312 7.90625 -4.3125 C 7.90625 -4.207031 7.890625 -4.125 7.859375 -4.0625 C 7.734375 -3.832031 7.582031 -3.554688 7.40625 -3.234375 C 7.238281 -2.910156 7.039062 -2.578125 6.8125 -2.234375 C 6.582031 -1.898438 6.332031 -1.5625 6.0625 -1.21875 C 5.800781 -0.882812 5.519531 -0.582031 5.21875 -0.3125 C 4.914062 -0.0390625 4.597656 0.175781 4.265625 0.34375 C 3.929688 0.507812 3.59375 0.59375 3.25 0.59375 C 2.8125 0.59375 2.425781 0.5 2.09375 0.3125 C 1.757812 0.125 1.476562 -0.125 1.25 -0.4375 C 1.019531 -0.75 0.847656 -1.117188 0.734375 -1.546875 C 0.628906 -1.972656 0.578125 -2.429688 0.578125 -2.921875 Z M 2.125 -11.5 C 2.125 -11.632812 2.070312 -11.753906 1.96875 -11.859375 C 1.863281 -11.960938 1.742188 -12.015625 1.609375 -12.015625 C 1.472656 -12.015625 1.351562 -11.960938 1.25 -11.859375 C 1.15625 -11.753906 1.109375 -11.632812 1.109375 -11.5 C 1.109375 -11.363281 1.15625 -11.242188 1.25 -11.140625 C 1.351562 -11.046875 1.472656 -11 1.609375 -11 C 1.742188 -11 1.863281 -11.046875 1.96875 -11.140625 C 2.070312 -11.242188 2.125 -11.363281 2.125 -11.5 Z M 2.125 -11.5 "/></g></g><g transform="translate(227.279974, 294.295497)"><g><path d="M 2.3125 -1.609375 C 2.519531 -1.328125 2.785156 -1.097656 3.109375 -0.921875 C 3.429688 -0.753906 3.828125 -0.671875 4.296875 -0.671875 C 4.773438 -0.671875 5.207031 -0.785156 5.59375 -1.015625 C 5.988281 -1.242188 6.347656 -1.539062 6.671875 -1.90625 C 6.992188 -2.28125 7.28125 -2.695312 7.53125 -3.15625 C 7.78125 -3.625 8.007812 -4.085938 8.21875 -4.546875 C 8.269531 -4.648438 8.335938 -4.726562 8.421875 -4.78125 C 8.515625 -4.832031 8.613281 -4.859375 8.71875 -4.859375 C 8.882812 -4.859375 9.015625 -4.800781 9.109375 -4.6875 C 9.210938 -4.570312 9.265625 -4.445312 9.265625 -4.3125 C 9.265625 -4.257812 9.257812 -4.210938 9.25 -4.171875 C 9.25 -4.140625 9.238281 -4.109375 9.21875 -4.078125 C 8.539062 -2.585938 7.800781 -1.46875 7 -0.71875 C 6.207031 0.03125 5.3125 0.414062 4.3125 0.4375 C 3.664062 0.4375 3.109375 0.3125 2.640625 0.0625 C 2.171875 -0.1875 1.785156 -0.507812 1.484375 -0.90625 C 1.179688 -1.300781 0.957031 -1.742188 0.8125 -2.234375 C 0.664062 -2.734375 0.59375 -3.234375 0.59375 -3.734375 C 0.59375 -4.234375 0.648438 -4.691406 0.765625 -5.109375 C 0.890625 -5.535156 1.066406 -5.90625 1.296875 -6.21875 C 1.523438 -6.53125 1.796875 -6.769531 2.109375 -6.9375 C 2.429688 -7.113281 2.785156 -7.203125 3.171875 -7.203125 C 3.390625 -7.203125 3.609375 -7.15625 3.828125 -7.0625 C 4.046875 -6.96875 4.242188 -6.835938 4.421875 -6.671875 C 4.597656 -6.503906 4.738281 -6.296875 4.84375 -6.046875 C 4.957031 -5.804688 5.015625 -5.53125 5.015625 -5.21875 C 5.015625 -4.8125 4.941406 -4.429688 4.796875 -4.078125 C 4.660156 -3.734375 4.472656 -3.410156 4.234375 -3.109375 C 3.992188 -2.804688 3.707031 -2.523438 3.375 -2.265625 C 3.050781 -2.015625 2.695312 -1.796875 2.3125 -1.609375 Z M 1.875 -2.5625 C 2.175781 -2.6875 2.453125 -2.847656 2.703125 -3.046875 C 2.953125 -3.242188 3.164062 -3.457031 3.34375 -3.6875 C 3.519531 -3.925781 3.65625 -4.171875 3.75 -4.421875 C 3.84375 -4.679688 3.890625 -4.945312 3.890625 -5.21875 C 3.890625 -5.507812 3.816406 -5.726562 3.671875 -5.875 C 3.523438 -6.03125 3.359375 -6.109375 3.171875 -6.109375 C 2.898438 -6.109375 2.671875 -6.035156 2.484375 -5.890625 C 2.304688 -5.742188 2.15625 -5.550781 2.03125 -5.3125 C 1.914062 -5.082031 1.832031 -4.820312 1.78125 -4.53125 C 1.726562 -4.25 1.703125 -3.960938 1.703125 -3.671875 C 1.703125 -3.492188 1.71875 -3.304688 1.75 -3.109375 C 1.78125 -2.921875 1.820312 -2.738281 1.875 -2.5625 Z M 1.875 -2.5625 "/></g></g></g><g fill="#f5f5f5" fill-opacity="1"><g transform="translate(75.109618, 261.695491)"><g><path d="M 22.980469 -4.828125 C 21.488281 -2.175781 18.5625 -0.476562 14.855469 -0.476562 C 8.875 -0.476562 4.863281 -4.964844 4.863281 -11.933594 C 4.863281 -18.835938 8.839844 -23.324219 15.027344 -23.324219 C 18.496094 -23.324219 21.042969 -21.894531 21.996094 -19.820312 C 21.894531 -19.855469 21.792969 -19.855469 21.691406 -19.855469 C 20.636719 -19.855469 19.855469 -19.105469 19.855469 -18.050781 C 19.855469 -17 20.636719 -16.25 21.691406 -16.25 C 22.746094 -16.25 23.457031 -17.03125 23.457031 -18.019531 L 23.457031 -18.050781 C 23.457031 -21.28125 19.515625 -24.136719 14.246094 -24.136719 C 7.003906 -24.136719 1.699219 -18.765625 1.699219 -11.898438 C 1.699219 -4.863281 7.171875 0.339844 14.277344 0.339844 C 18.664062 0.339844 22.300781 -1.664062 23.730469 -4.351562 Z M 22.980469 -4.828125 "/></g></g></g><g fill="#f5f5f5" fill-opacity="1"><g transform="translate(100.470708, 261.695491)"><g><path d="M 20.023438 0 L 23.1875 0 L 12.78125 -23.796875 L 11.457031 -23.796875 L 1.019531 0 L 1.972656 0 L 5.066406 -7.039062 L 16.964844 -7.039062 Z M 5.335938 -7.71875 L 11.015625 -20.671875 L 16.660156 -7.71875 Z M 5.335938 -7.71875 "/></g></g></g><g fill="#f5f5f5" fill-opacity="1"><g transform="translate(124.675933, 261.695491)"><g><path d="M 20.804688 -2.582031 L 17.746094 -7.785156 C 17.066406 -8.976562 15.742188 -9.824219 14.109375 -10.300781 C 18.289062 -10.8125 21.25 -13.496094 21.25 -17.03125 C 21.25 -20.910156 17.542969 -23.796875 12.613281 -23.796875 L 3.265625 -23.796875 L 3.265625 0 L 6.289062 0 L 6.289062 -10.199219 L 12.070312 -10.199219 C 12.953125 -9.792969 13.667969 -9.078125 14.144531 -8.296875 L 17.746094 -1.972656 C 18.15625 -1.257812 18.734375 -0.542969 19.515625 0 L 22.980469 0 C 22.269531 -0.511719 21.382812 -1.53125 20.804688 -2.582031 Z M 6.289062 -23.117188 L 12.035156 -23.117188 C 15.671875 -23.117188 18.085938 -20.703125 18.085938 -17 C 18.085938 -13.292969 15.671875 -10.878906 12.035156 -10.878906 L 6.289062 -10.878906 Z M 6.289062 -23.117188 "/></g></g></g><g fill="#f5f5f5" fill-opacity="1"><g transform="translate(147.929274, 261.695491)"><g><path d="M 24.003906 -23.796875 L 15.300781 -9.417969 L 6.5625 -23.796875 L 3.265625 -23.796875 L 3.265625 0 L 4.078125 0 L 4.078125 -22.300781 L 13.835938 -6.1875 L 14.382812 -6.1875 L 24.136719 -22.300781 L 24.136719 0 L 27.164062 0 L 27.164062 -23.796875 Z M 24.003906 -23.796875 "/></g></g></g><g fill="#f5f5f5" fill-opacity="1"><g transform="translate(178.355782, 261.695491)"><g><path d="M 20.023438 0 L 23.1875 0 L 12.78125 -23.796875 L 11.457031 -23.796875 L 1.019531 0 L 1.972656 0 L 5.066406 -7.039062 L 16.964844 -7.039062 Z M 5.335938 -7.71875 L 11.015625 -20.671875 L 16.660156 -7.71875 Z M 5.335938 -7.71875 "/></g></g></g><g fill="#f5f5f5" fill-opacity="1"><g transform="translate(202.561007, 261.695491)"><g/></g></g><g fill="#f5f5f5" fill-opacity="1"><g transform="translate(211.705957, 261.695491)"><g><path d="M 11.492188 -13.191406 C 8.125 -14.515625 4.726562 -15.910156 4.726562 -18.835938 C 4.726562 -21.417969 7.378906 -23.390625 10.914062 -23.390625 C 13.632812 -23.390625 15.84375 -22.300781 16.761719 -20.703125 L 16.625 -20.703125 C 15.605469 -20.703125 14.855469 -19.992188 14.855469 -19.003906 C 14.855469 -18.019531 15.605469 -17.339844 16.625 -17.339844 C 17.542969 -17.339844 18.257812 -18.019531 18.257812 -19.003906 C 18.257812 -21.929688 14.925781 -24.136719 10.605469 -24.136719 C 5.882812 -24.136719 2.378906 -21.488281 2.378906 -17.710938 C 2.378906 -13.597656 6.527344 -11.933594 9.960938 -10.539062 C 13.597656 -9.113281 16.761719 -7.785156 16.761719 -4.929688 C 16.761719 -2.277344 14.007812 -0.40625 10.132812 -0.40625 C 6.96875 -0.40625 4.351562 -1.632812 3.367188 -3.46875 L 3.605469 -3.46875 C 4.523438 -3.46875 5.234375 -4.183594 5.234375 -5.167969 C 5.234375 -6.152344 4.523438 -6.832031 3.605469 -6.832031 C 2.582031 -6.832031 1.835938 -6.152344 1.835938 -5.167969 C 1.835938 -2.039062 5.675781 0.339844 10.539062 0.339844 C 15.570312 0.339844 19.175781 -2.210938 19.175781 -6.1875 C 19.175781 -10.234375 15.433594 -11.695312 11.492188 -13.191406 Z M 11.492188 -13.191406 "/></g></g></g><g fill="#f5f5f5" fill-opacity="1"><g transform="translate(232.477578, 261.695491)"><g><path d="M 10.132812 -26.28125 C 11.117188 -26.28125 11.832031 -26.960938 11.832031 -27.945312 C 11.832031 -28.898438 11.117188 -29.644531 10.164062 -29.644531 C 9.144531 -29.644531 8.398438 -28.898438 8.398438 -27.910156 C 8.398438 -26.925781 9.144531 -26.28125 10.132812 -26.28125 Z M 16.625 -26.28125 C 17.609375 -26.28125 18.324219 -26.960938 18.324219 -27.945312 C 18.324219 -28.898438 17.609375 -29.644531 16.660156 -29.644531 C 15.640625 -29.644531 14.890625 -28.898438 14.890625 -27.945312 C 14.890625 -26.925781 15.671875 -26.28125 16.625 -26.28125 Z M 13.394531 0.339844 C 19.277344 0.339844 22.847656 -3.296875 22.847656 -8.839844 L 22.847656 -23.796875 L 22.03125 -23.796875 L 22.03125 -8.875 C 22.03125 -3.945312 19.003906 -0.746094 14.144531 -0.746094 C 9.28125 -0.746094 6.050781 -3.945312 6.050781 -8.875 L 6.050781 -23.796875 L 3.027344 -23.796875 L 3.027344 -9.417969 C 3.027344 -3.535156 7.308594 0.339844 13.394531 0.339844 Z M 13.394531 0.339844 "/></g></g></g><g fill="#f5f5f5" fill-opacity="1"><g transform="translate(258.348616, 261.695491)"><g><path d="M 11.492188 -13.191406 C 8.125 -14.515625 4.726562 -15.910156 4.726562 -18.835938 C 4.726562 -21.417969 7.378906 -23.390625 10.914062 -23.390625 C 13.632812 -23.390625 15.84375 -22.300781 16.761719 -20.703125 L 16.625 -20.703125 C 15.605469 -20.703125 14.855469 -19.992188 14.855469 -19.003906 C 14.855469 -18.019531 15.605469 -17.339844 16.625 -17.339844 C 17.542969 -17.339844 18.257812 -18.019531 18.257812 -19.003906 C 18.257812 -21.929688 14.925781 -24.136719 10.605469 -24.136719 C 5.882812 -24.136719 2.378906 -21.488281 2.378906 -17.710938 C 2.378906 -13.597656 6.527344 -11.933594 9.960938 -10.539062 C 13.597656 -9.113281 16.761719 -7.785156 16.761719 -4.929688 C 16.761719 -2.277344 14.007812 -0.40625 10.132812 -0.40625 C 6.96875 -0.40625 4.351562 -1.632812 3.367188 -3.46875 L 3.605469 -3.46875 C 4.523438 -3.46875 5.234375 -4.183594 5.234375 -5.167969 C 5.234375 -6.152344 4.523438 -6.832031 3.605469 -6.832031 C 2.582031 -6.832031 1.835938 -6.152344 1.835938 -5.167969 C 1.835938 -2.039062 5.675781 0.339844 10.539062 0.339844 C 15.570312 0.339844 19.175781 -2.210938 19.175781 -6.1875 C 19.175781 -10.234375 15.433594 -11.695312 11.492188 -13.191406 Z M 11.492188 -13.191406 "/></g></g></g><g fill="#f5f5f5" fill-opacity="1"><g transform="translate(279.120225, 261.695491)"><g><path d="M 11.492188 -13.191406 C 8.125 -14.515625 4.726562 -15.910156 4.726562 -18.835938 C 4.726562 -21.417969 7.378906 -23.390625 10.914062 -23.390625 C 13.632812 -23.390625 15.84375 -22.300781 16.761719 -20.703125 L 16.625 -20.703125 C 15.605469 -20.703125 14.855469 -19.992188 14.855469 -19.003906 C 14.855469 -18.019531 15.605469 -17.339844 16.625 -17.339844 C 17.542969 -17.339844 18.257812 -18.019531 18.257812 -19.003906 C 18.257812 -21.929688 14.925781 -24.136719 10.605469 -24.136719 C 5.882812 -24.136719 2.378906 -21.488281 2.378906 -17.710938 C 2.378906 -13.597656 6.527344 -11.933594 9.960938 -10.539062 C 13.597656 -9.113281 16.761719 -7.785156 16.761719 -4.929688 C 16.761719 -2.277344 14.007812 -0.40625 10.132812 -0.40625 C 6.96875 -0.40625 4.351562 -1.632812 3.367188 -3.46875 L 3.605469 -3.46875 C 4.523438 -3.46875 5.234375 -4.183594 5.234375 -5.167969 C 5.234375 -6.152344 4.523438 -6.832031 3.605469 -6.832031 C 2.582031 -6.832031 1.835938 -6.152344 1.835938 -5.167969 C 1.835938 -2.039062 5.675781 0.339844 10.539062 0.339844 C 15.570312 0.339844 19.175781 -2.210938 19.175781 -6.1875 C 19.175781 -10.234375 15.433594 -11.695312 11.492188 -13.191406 Z M 11.492188 -13.191406 "/></g></g></g></svg>